<?xml version="1.0" encoding="utf-8"?>
<!-- Generator: Adobe Illustrator 22.1.0, SVG Export Plug-In . SVG Version: 6.00 Build 0)  -->
<svg version="1.1" xmlns="http://www.w3.org/2000/svg" xmlns:xlink="http://www.w3.org/1999/xlink" x="0px" y="0px"
	 viewBox="0 0 1920 1080" style="enable-background:new 0 0 1920 1080;" xml:space="preserve">
<style type="text/css">
	.st0{display:none;}
	.st1{display:inline;}
	.st2{fill:url(#SVGID_1_);}
	.st3{opacity:0.4;fill:none;stroke:#FFFFFF;stroke-width:4;stroke-linecap:round;stroke-linejoin:round;stroke-miterlimit:10;}
	.st4{opacity:0.4;}
	.st5{fill:none;stroke:#FFFFFF;stroke-width:4;stroke-linecap:round;stroke-miterlimit:10;}
	.st6{opacity:0.4;fill:none;stroke:#FFFFFF;stroke-width:4;stroke-linecap:round;stroke-miterlimit:10;}
	.st7{opacity:0.4;fill:#FFFFFF;}
	.st8{fill:#FFFFFF;}
	.st9{fill:url(#SVGID_2_);}
	.st10{fill:url(#SVGID_3_);}
	.st11{fill:url(#SVGID_4_);}
	.st12{fill:url(#SVGID_5_);}
	.st13{fill:url(#SVGID_6_);}
	.st14{fill:url(#SVGID_7_);}
	.st15{fill:url(#SVGID_8_);}
	.st16{fill:url(#SVGID_9_);}
	.st17{fill:url(#SVGID_10_);}
</style>
<g id="Layer_1" class="st0">
	<g class="st1">
		<linearGradient id="SVGID_1_" gradientUnits="userSpaceOnUse" x1="210" y1="1290" x2="1710" y2="-210">
			<stop  offset="0" style="stop-color:#20263A"/>
			<stop  offset="1" style="stop-color:#4F5F93"/>
		</linearGradient>
		<rect class="st2" width="1920" height="1080"/>
	</g>
</g>
<g id="Layer_3" class="st0">
	
		<image style="display:inline;overflow:visible;" width="1000" height="1000" xlink:href="RB_Shadow.png"  transform="matrix(1 0 0 1 441 27)">
	</image>
</g>
<g id="Layer_2">
	<rect x="1341" y="569" class="st3" width="19" height="19"/>
	<rect x="875" y="230" transform="matrix(0.7614 0.6483 -0.6483 0.7614 366.3216 -516.2722)" class="st3" width="19" height="19"/>
	<rect x="478" y="286" transform="matrix(0.9079 -0.4192 0.4192 0.9079 -78.9722 231.5797)" class="st3" width="19" height="19"/>
	<polyline class="st3" points="553.7,628.8 543.7,643.8 535,628.8 535,628.7 544.9,613.8 553.7,628.7 	"/>
	<polyline class="st3" points="985,828.4 991,845.3 973.7,843.3 973.7,843.2 967.7,826.2 984.9,828.3 	"/>
	<polyline class="st3" points="1393.6,776.6 1382.5,790.7 1375,775.1 1375,775 1386.1,760.9 1393.7,776.5 	"/>
	<polyline class="st3" points="1366.7,245.6 1349.6,251.2 1351.9,234.1 1352,234 1369.1,228.3 1366.7,245.5 	"/>
	<g class="st4">
		<line class="st5" x1="418.4" y1="456" x2="418.4" y2="476.2"/>
		<line class="st5" x1="408" y1="466.1" x2="429" y2="466.1"/>
	</g>
	<g class="st4">
		<line class="st5" x1="1542.2" y1="269.1" x2="1538.5" y2="289"/>
		<line class="st5" x1="1530.2" y1="277.2" x2="1550.8" y2="281"/>
	</g>
	<g class="st4">
		<line class="st5" x1="1584" y1="645.1" x2="1592.8" y2="663.2"/>
		<line class="st5" x1="1579.1" y1="658.7" x2="1597.9" y2="649.5"/>
	</g>
	<g class="st4">
		<line class="st5" x1="1204.4" y1="73" x2="1204.4" y2="93.2"/>
		<line class="st5" x1="1194" y1="83.1" x2="1215" y2="83.1"/>
	</g>
	<g class="st4">
		<line class="st5" x1="424.9" y1="851.6" x2="431.8" y2="870.6"/>
		<line class="st5" x1="418.6" y1="864.7" x2="438.4" y2="857.5"/>
	</g>
	<circle class="st6" cx="573.5" cy="348.5" r="12.5"/>
	<circle class="st6" cx="688.5" cy="790.5" r="12.5"/>
	<circle class="st6" cx="1462.5" cy="420.5" r="12.5"/>
	<circle class="st6" cx="299.5" cy="282.5" r="12.5"/>
	<circle class="st6" cx="739.5" cy="206.5" r="12.5"/>
	<circle class="st7" cx="1144.5" cy="228.5" r="11.5"/>
	<circle class="st7" cx="782.5" cy="879.5" r="11.5"/>
	<circle class="st7" cx="275.5" cy="654.5" r="11.5"/>
	<circle class="st7" cx="1663.5" cy="455.5" r="11.5"/>
	<circle class="st7" cx="1226.5" cy="856.5" r="11.5"/>
	<g class="st4">
		<path class="st8" d="M1431.5,330.3c-0.2,0-0.4,0-0.7,0c-2.4-6.8-10.8-10.4-18.5-5c-2.6,1.8-4.1,5-3.7,8.2c0,0.3,0,0.5,0,0.8
			c-4.9,1.3-7.8,7.2-3.8,12.7c1.1,1.5,2.9,2.3,4.7,2.3l10.6,0v-8.7l-2.5,2.5c-0.4,0.4-0.9,0.6-1.3,0.6c-0.5,0-1-0.2-1.3-0.6
			c-0.7-0.7-0.7-1.9,0-2.7l5.7-5.7c0.2-0.2,0.4-0.3,0.6-0.4c0.5-0.2,1-0.2,1.5,0c0.2,0.1,0.4,0.2,0.6,0.4l5.7,5.7
			c0.7,0.7,0.7,1.9,0,2.7c-0.4,0.4-0.9,0.6-1.3,0.6c-0.5,0-1-0.2-1.3-0.6l-2.5-2.5v8.7l8.9,0c2.5,0,4.8-1.2,6.2-3.2
			C1444.1,338.5,1438.7,330.3,1431.5,330.3z"/>
	</g>
	<g class="st4">
		<g id="Layer_1_5_">
			<g>
				<path class="st8" d="M1481.9,717.4c-10.5,0-19-8.5-19-19c0-10.5,8.5-19,19-19s19,8.5,19,19
					C1500.9,708.9,1492.4,717.4,1481.9,717.4z M1481.9,683.6c-8.1,0-14.8,6.6-14.8,14.8c0,8.1,6.6,14.8,14.8,14.8
					s14.8-6.6,14.8-14.8C1496.7,690.2,1490.1,683.6,1481.9,683.6z"/>
			</g>
			<g>
				<g>
					<path class="st8" d="M1485.2,699.7c0.4,0,0.7,0.2,0.9,0.5c0.3,0.4,0.4,0.8,0.4,1.3c0,0.5-0.1,1-0.4,1.3
						c-0.3,0.4-0.6,0.5-0.9,0.5c-0.4,0-0.7-0.2-1-0.5c-0.3-0.4-0.4-0.8-0.4-1.3s0.1-1,0.4-1.3
						C1484.5,699.9,1484.8,699.7,1485.2,699.7 M1489.9,694.9c1,1.1,1.5,2.4,1.5,4c0,1-0.1,1.9-0.4,2.7c-0.2,0.8-0.5,1.5-0.9,2
						c-0.4,0.5-0.8,1-1.3,1.3c-0.5,0.4-1,0.7-1.4,0.8c-0.4,0.2-0.9,0.3-1.5,0.4c-0.6,0.1-1,0.2-1.3,0.2c-0.3,0-0.6,0-0.9,0
						c-0.1,0-0.3,0-0.7,0c-0.4,0-0.8,0-1,0s-0.6,0-1,0c-0.4,0-0.7,0-0.7,0c-0.3,0-0.6,0-0.9,0c-0.3,0-0.7-0.1-1.3-0.2
						c-0.6-0.1-1.1-0.2-1.5-0.4c-0.4-0.2-0.9-0.5-1.4-0.8c-0.5-0.4-1-0.8-1.3-1.3c-0.4-0.5-0.7-1.2-0.9-2c-0.2-0.8-0.4-1.7-0.4-2.7
						c0-1.6,0.5-2.9,1.5-4c-0.1-0.1-0.1-0.6,0-1.7c0.1-1,0.3-2,0.7-2.9c1.3,0.1,2.8,0.9,4.7,2.1c0.6-0.2,1.5-0.2,2.6-0.2
						c1.2,0,2,0.1,2.6,0.2c0.9-0.6,1.7-1,2.4-1.4c0.8-0.4,1.4-0.6,1.7-0.6l0.5-0.1c0.4,0.9,0.6,1.8,0.7,2.9
						C1490,694.3,1490,694.8,1489.9,694.9 M1482,705.5c2.3,0,4-0.3,5.2-0.8c1.2-0.5,1.8-1.7,1.8-3.4c0-1-0.4-1.8-1.1-2.5
						c-0.4-0.4-0.8-0.6-1.3-0.7c-0.5-0.1-1.3-0.1-2.3,0c-1,0.1-1.8,0.1-2.1,0.1c-0.5,0-1.1,0-1.8-0.1c-0.7-0.1-1.3-0.1-1.7-0.1
						c-0.4,0-0.8,0-1.3,0.1c-0.5,0.1-0.9,0.3-1.2,0.6c-0.7,0.6-1.1,1.5-1.1,2.5c0,1.7,0.6,2.8,1.7,3.4
						C1477.9,705.2,1479.6,705.5,1482,705.5 M1478.7,699.7c0.4,0,0.7,0.2,0.9,0.5c0.3,0.4,0.4,0.8,0.4,1.3c0,0.5-0.1,1-0.4,1.3
						c-0.3,0.4-0.6,0.5-0.9,0.5c-0.4,0-0.7-0.2-1-0.5c-0.3-0.4-0.4-0.8-0.4-1.3s0.1-1,0.4-1.3
						C1477.9,699.9,1478.3,699.7,1478.7,699.7"/>
				</g>
			</g>
		</g>
	</g>
	<g>
		<g id="Layer_1_1_">
			<linearGradient id="SVGID_2_" gradientUnits="userSpaceOnUse" x1="1242.5238" y1="821.1468" x2="1270.9495" y2="792.7211">
				<stop  offset="0" style="stop-color:#64BA9A"/>
				<stop  offset="1" style="stop-color:#8BC07B"/>
			</linearGradient>
			<path class="st9" d="M1275.3,813.9c0,0-4.1-4.4-4.1-15c0-6.2-4-11.5-9.5-13.4c0.2-1.3,0.3-2.6-3.5-5.1c-0.6-0.4-1.3-0.6-2-0.4
				c-2.2,0.4-3.9,2.3-3.9,4.7c0,0.3,0,0.5,0.1,0.8c-5.5,1.9-9.5,7.2-9.5,13.4c0,10.6-4.1,15-4.1,15c-0.7,0.7-0.9,1.7-0.5,2.6
				s1.2,1.5,2.2,1.5h7.5c1.1,4.1,4.7,7.1,9.2,7.1c4.4,0,8.1-3,9.2-7.1h7.5c1,0,1.8-0.6,2.2-1.4
				C1276.1,815.6,1275.9,814.6,1275.3,813.9z M1266.4,799.1c0,1.6,0.1,3.2,0.3,4.6h-19.5c0.2-1.5,0.3-3.1,0.3-4.8
				c0-5.9,5.4-10.6,11.6-9.2C1263.4,790.6,1266.4,794.7,1266.4,799.1z M1256.9,820.3c-1.8,0-3.3-1-4.1-2.4h8.2
				C1260.2,819.3,1258.7,820.3,1256.9,820.3z M1244.6,813.2c0.8-1.7,1.7-4.1,2.2-7.1h20.2c0.6,3,1.4,5.4,2.2,7.1H1244.6z"/>
		</g>
	</g>
	<g class="st4">
		<g id="Layer_1_2_">
			<path class="st8" d="M1060.3,937.9h-28.5c-2.6,0-4.8,2.1-4.8,4.8V960c0,2.6,2.1,4.8,4.8,4.8h9.5v3.2h-4.8c-0.9,0-1.6,0.7-1.6,1.6
				c0,0.9,0.7,1.6,1.6,1.6h19c0.9,0,1.6-0.7,1.6-1.6c0-0.9-0.7-1.6-1.6-1.6h-4.8v-3.2h9.5c2.6,0,4.8-2.1,4.8-4.8v-17.4
				C1065,940,1062.9,937.9,1060.3,937.9z M1049.2,968h-6.3v-3.2h6.3V968z M1060.3,961.6h-28.5c-0.9,0-1.6-0.7-1.6-1.6v-17.4
				c0-0.9,0.7-1.6,1.6-1.6h28.5c0.9,0,1.6,0.7,1.6,1.6V960C1061.8,960.9,1061.1,961.6,1060.3,961.6z"/>
			<path class="st8" d="M1058.7,942.6h-25.3c-0.9,0-1.6,0.7-1.6,1.6v12.7c0,0.9,0.7,1.6,1.6,1.6h25.3c0.9,0,1.6-0.7,1.6-1.6v-12.7
				C1060.3,943.3,1059.5,942.6,1058.7,942.6z M1058.7,956.9h-25.3v-12.7h25.3V956.9z"/>
		</g>
	</g>
	<g class="st4">
		<path class="st8" d="M1377.7,897.7c-0.1-0.4-0.4-0.7-0.8-0.8c-0.4-0.1-0.8,0-1.1,0.3l-6.2,6.1l-4.5-0.9l-0.9-4.5l6.3-6.1
			c0.3-0.3,0.4-0.7,0.3-1.1c-0.1-0.4-0.4-0.7-0.8-0.9c-1.3-0.4-2.4-0.6-3.5-0.6c-6.5,0-11.9,5.3-11.9,11.9c0,0.8,0.1,1.5,0.3,2.4
			c-1.3,1.1-2.6,2-4,3.1c-2.1,1.5-4.4,3.3-7.6,6c-1.9,1.6-2.9,3.9-2.9,6.3c0,4.6,3.7,8.3,8.3,8.3c2.4,0,4.7-1.1,6.3-3
			c2.7-3.2,4.5-5.5,6-7.6c1-1.4,2-2.6,3-3.9c0.9,0.2,1.6,0.3,2.4,0.3c6.5,0,11.9-5.3,11.9-11.9C1378.2,900,1378,898.9,1377.7,897.7z
			 M1348.5,921.2c-1.3,0-2.4-1.1-2.4-2.4c0-1.3,1.1-2.4,2.4-2.4s2.4,1.1,2.4,2.4C1350.9,920.1,1349.8,921.2,1348.5,921.2z"/>
	</g>
	<g class="st4">
		<g id="Layer_1_3_">
			<g>
				<path class="st8" d="M536.4,183.7c0,0.6-0.5,1.1-1.1,1.1c-0.6,0-1.1-0.5-1.1-1.1v-13.4c0-0.6,0.5-1.1,1.1-1.1
					c0.6,0,1.1,0.5,1.1,1.1V183.7z"/>
			</g>
			<g>
				<path class="st8" d="M540.9,183.7c0,0.6-0.5,1.1-1.1,1.1c-0.6,0-1.1-0.5-1.1-1.1v-13.4c0-0.6,0.5-1.1,1.1-1.1
					c0.6,0,1.1,0.5,1.1,1.1V183.7z"/>
			</g>
			<g>
				<path class="st8" d="M545.4,183.7c0,0.6-0.5,1.1-1.1,1.1c-0.6,0-1.1-0.5-1.1-1.1v-13.4c0-0.6,0.5-1.1,1.1-1.1
					c0.6,0,1.1,0.5,1.1,1.1V183.7z"/>
			</g>
			<path class="st8" d="M555.4,159.9h-1.1v-2.2c0-2.5-2-4.5-4.5-4.5h-20.1c-2.5,0-4.5,2-4.5,4.5v29.1c0,3.7,3,6.7,6.7,6.7h15.6
				c3.7,0,6.7-3,6.7-6.7h1.1c4.3,0,7.8-3.5,7.8-7.8v-11.2C563.3,163.4,559.8,159.9,555.4,159.9z M529.7,157.7h20.1v2.2h-9.9
				l-0.3,0.7c-0.4,1-1.5,1.6-2.5,1.4l-0.8-0.1l-0.4,0.7c-0.6,1.1-1.7,1.7-2.9,1.7c-1.8,0-3.4-1.5-3.4-3.4v-1.1V157.7z M547.6,189
				H532c-1.2,0-2.2-1-2.2-2.2v-21.3c0.9,0.7,2.1,1.1,3.4,1.1c1.8,0,3.4-0.8,4.4-2.2c1.6,0,3.1-0.9,3.9-2.2h8.4v2.2v22.4
				C549.9,188,548.9,189,547.6,189z M555.4,182.3h-3.4v-17.9h3.4c1.9,0,3.4,1.5,3.4,3.4v11.2C558.8,180.8,557.3,182.3,555.4,182.3z"
				/>
		</g>
	</g>
	<g>
		<g>
			<linearGradient id="SVGID_3_" gradientUnits="userSpaceOnUse" x1="995.3173" y1="128.1243" x2="1005.5398" y2="128.1243">
				<stop  offset="0" style="stop-color:#D7B775"/>
				<stop  offset="1" style="stop-color:#D7DD75"/>
			</linearGradient>
			<path class="st10" d="M997.3,133.2l8.3-8.3l-1-1c-1.3-1.3-3.5-1.3-4.7,0l-3.5,3.5c-0.6,0.6-1,1.5-1,2.4s0.3,1.7,1,2.4
				L997.3,133.2z"/>
			<linearGradient id="SVGID_4_" gradientUnits="userSpaceOnUse" x1="973.0218" y1="150.4165" x2="983.2354" y2="150.4165">
				<stop  offset="0" style="stop-color:#D7B775"/>
				<stop  offset="1" style="stop-color:#D7DD75"/>
			</linearGradient>
			<path class="st11" d="M982.3,146.3c-1.3-1.3-3.5-1.3-4.7,0l-3.5,3.5c-0.6,0.6-1,1.5-1,2.4c0,0.9,0.3,1.7,1,2.4l1,1l8.3-8.3
				L982.3,146.3z"/>
			<linearGradient id="SVGID_5_" gradientUnits="userSpaceOnUse" x1="977.2133" y1="144.0907" x2="1011.0218" y2="144.0907">
				<stop  offset="0" style="stop-color:#D7B775"/>
				<stop  offset="1" style="stop-color:#D7DD75"/>
			</linearGradient>
			<path class="st12" d="M1008.6,128l-0.8-0.8l-8.3,8.3l1.4,1.4c0.2,0.2,0.3,0.5,0.3,0.8c0,0.3-0.1,0.6-0.3,0.8l-12.5,12.5
				c-0.4,0.4-1.2,0.4-1.6,0l-1.4-1.4l-8.3,8.3l0.8,0.8c0.6,0.6,2.8,2.5,6.8,2.5c3.6,0,9.5-1.6,17.1-9.2
				C1017,136.7,1008.9,128.3,1008.6,128z"/>
		</g>
	</g>
	<g>
		<linearGradient id="SVGID_6_" gradientUnits="userSpaceOnUse" x1="1448.2349" y1="545.3495" x2="1477.0398" y2="516.5447">
			<stop  offset="0" style="stop-color:#6B94F2"/>
			<stop  offset="1" style="stop-color:#6BADF2"/>
		</linearGradient>
		<path class="st13" d="M1478.3,521.5c-0.9-0.3-5.6-0.9-8.7-1.3c0.5-2.8,0.7-5.4,0.7-8.1c0-3.1-2.5-5.6-5.6-5.6s-5.6,2.5-5.6,5.6
			c0,4.2-1.5,6.1-3.6,8.3c-1.2-1.6-3.1-2.7-5.3-2.7c-3.7,0-6.7,3-6.7,6.7v13.4c0,3.7,3,6.7,6.7,6.7c1.7,0,3.2-0.6,4.4-1.7
			c0.1,0.1,0.3,0.3,0.4,0.4c2.1,1.6,8.2,3.5,13.1,3.5c4.2,0,5.8-0.7,7.3-1.2c0.2-0.1,0.5-0.2,0.7-0.3c1.9-0.7,3.5-2.7,3.9-4.9
			l1.5-13.4C1481.8,524.7,1480.4,522.3,1478.3,521.5z M1450.2,540.1c-1.2,0-2.2-1-2.2-2.2v-13.4c0-1.2,1-2.2,2.2-2.2
			c1.2,0,2.2,1,2.2,2.2v13.4C1452.4,539.1,1451.4,540.1,1450.2,540.1z M1475.5,539.7c-0.1,0.5-0.7,1.2-1,1.3
			c-0.3,0.1-0.6,0.2-0.8,0.3c-1.2,0.5-2.3,0.9-5.6,0.9c-4.3,0-9.2-1.7-10.4-2.6c-0.4-0.3-0.8-1.3-0.8-1.9v-11.1
			c0-0.1,0.1-1.5,1.6-2.9c2-2,5.1-5.1,5.1-11.6c0-0.6,0.5-1.1,1.1-1.1s1.1,0.5,1.1,1.1c0,3.1-0.3,6.1-1.1,9.6l-0.7,3.1l3-0.4
			c1.3,0.1,8.8,1,9.7,1.2c0.1,0.1,0.3,0.4,0.2,0.7L1475.5,539.7z"/>
	</g>
	<g>
		<g>
			<g>
				<linearGradient id="SVGID_7_" gradientUnits="userSpaceOnUse" x1="677.9796" y1="937.6129" x2="699.3538" y2="958.9871">
					<stop  offset="0" style="stop-color:#DB5E98"/>
					<stop  offset="1" style="stop-color:#E68165"/>
				</linearGradient>
				<path class="st14" d="M702,946.4c1,0,1.9,0.9,1.9,1.9c0,1-0.9,1.9-1.9,1.9h-26.6c-1,0-1.9-0.9-1.9-1.9c0-1,0.9-1.9,1.9-1.9h27.2
					 M702,942.6l-26.4,0c-2.5,0-4.8,1.5-5.6,3.8c-1.3,3.9,1.7,7.6,5.4,7.6l26.4,0c2.5,0,4.8-1.5,5.6-3.8
					C708.6,946.2,705.7,942.6,702,942.6z"/>
			</g>
		</g>
		<g>
			<g>
				<linearGradient id="SVGID_8_" gradientUnits="userSpaceOnUse" x1="677.9796" y1="924.3129" x2="699.3538" y2="945.6871">
					<stop  offset="0" style="stop-color:#DB5E98"/>
					<stop  offset="1" style="stop-color:#E68165"/>
				</linearGradient>
				<path class="st15" d="M702,933.1c1,0,1.9,0.9,1.9,1.9s-0.9,1.9-1.9,1.9h-26.6c-1,0-1.9-0.9-1.9-1.9s0.9-1.9,1.9-1.9h27.2
					 M702,929.3h-26.4c-2.5,0-4.8,1.5-5.6,3.8c-1.2,3.9,1.7,7.6,5.4,7.6h26.4c2.5,0,4.8-1.5,5.6-3.8
					C708.6,932.9,705.7,929.3,702,929.3z"/>
			</g>
		</g>
		<g>
			<g>
				<linearGradient id="SVGID_9_" gradientUnits="userSpaceOnUse" x1="677.9796" y1="911.0129" x2="699.3538" y2="932.3871">
					<stop  offset="0" style="stop-color:#DB5E98"/>
					<stop  offset="1" style="stop-color:#E68165"/>
				</linearGradient>
				<path class="st16" d="M702,919.8c1,0,1.9,0.9,1.9,1.9c0,1-0.9,1.9-1.9,1.9h-26.6c-1,0-1.9-0.9-1.9-1.9c0-1,0.9-1.9,1.9-1.9h27.2
					 M702,916l-26.4,0c-2.5,0-4.8,1.5-5.6,3.8c-1.2,3.9,1.7,7.6,5.4,7.6l26.4,0c2.5,0,4.8-1.5,5.6-3.8
					C708.6,919.6,705.7,916,702,916z"/>
			</g>
		</g>
	</g>
	<g class="st4">
		<g>
			<g>
				<path class="st8" d="M325,551.8c0,0-7.2,0.8-12,1.3c-0.4,0.1-0.8,0.3-1,0.8c-0.1,0.4,0,0.9,0.3,1.2c3.6,3.3,8.9,8.1,8.9,8.1
					c0,0-1.5,7.1-2.4,11.8c-0.1,0.4,0.1,0.9,0.4,1.2c0.4,0.3,0.8,0.3,1.2,0.1c4.2-2.4,10.5-6,10.5-6s6.3,3.6,10.5,6
					c0.4,0.2,0.9,0.2,1.2-0.1c0.4-0.3,0.5-0.7,0.4-1.1c-1-4.7-2.4-11.8-2.4-11.8s5.4-4.9,8.9-8.1c0.3-0.3,0.5-0.8,0.3-1.2
					c-0.1-0.4-0.5-0.7-1-0.8c-4.8-0.5-12-1.3-12-1.3s-3-6.6-5-11c-0.2-0.4-0.6-0.7-1-0.7c-0.5,0-0.9,0.3-1,0.7
					C328,545.2,325,551.8,325,551.8z"/>
			</g>
		</g>
	</g>
	<g>
		<linearGradient id="SVGID_10_" gradientUnits="userSpaceOnUse" x1="394.8755" y1="738.6245" x2="425.1245" y2="708.3755">
			<stop  offset="0" style="stop-color:#695AD5"/>
			<stop  offset="1" style="stop-color:#8168DA"/>
		</linearGradient>
		<path class="st17" d="M424.8,709.8h-29.6c-2.3,0-4.2,1.9-4.2,4.2v19c0,2.3,1.9,4.2,4.2,4.2h29.6c2.3,0,4.2-1.9,4.2-4.2v-19
			C429,711.7,427.1,709.8,424.8,709.8z M403.6,725.2l3.4,3c0.6,0.6,1.5,0.8,2.3,0.8s1.6-0.3,2.3-0.8l3.4-3l-0.1,0.1l7.7,7.7H396
			L403.6,725.2L403.6,725.2z M395.2,731.5v-14.3l7.6,6.7L395.2,731.5z M417.2,723.9l7.6-6.7v14.3L417.2,723.9z M424.8,714v0.4
			l-13.9,12.1c-0.5,0.4-1.3,0.4-1.8,0l-13.9-12.1V714H424.8z"/>
	</g>
	<g class="st4">
		<path class="st8" d="M1296,155.9c0,0-11.8,10.1-18.3,15.6c-0.4,0.3-0.7,0.9-0.7,1.5c0,1.1,0.8,1.9,1.9,1.9h3.8v13.3
			c0,1,0.9,1.9,1.9,1.9h5.7c1,0,1.9-0.9,1.9-1.9v-7.6h7.6v7.6c0,1,0.9,1.9,1.9,1.9h5.7c1,0,1.9-0.9,1.9-1.9v-13.3h3.8
			c1.1,0,1.9-0.8,1.9-1.9c0-0.6-0.3-1.1-0.7-1.5C1307.7,166,1296,155.9,1296,155.9z"/>
	</g>
</g>
</svg>
