<svg xmlns="http://www.w3.org/2000/svg" viewBox="0 0 1366 629.5"><defs><style>.cls-1{fill:#6e3caf;}.cls-2{fill:#7645c4;}.cls-3{fill:#8050dd;}</style></defs><title>bg_shape</title><g id="Layer_2" data-name="Layer 2"><g id="Layer_1-2" data-name="Layer 1"><path class="cls-1" d="M1,629.5s354.1-120.62,677-136c294-14,688-152,688-152V1L1,0Z"/><path class="cls-2" d="M0,524.94S253.15,442.59,326,389.5c118-86,192.55-152,357-167,187-17,279-222,279-222H1Z"/><path class="cls-3" d="M1,401.5s119-4,165-38,72-94,138-148c39.42-32.25,96-23,140-68s96-74,166-66c68.15,7.79,154-81,154-81H1Z"/></g></g></svg>