<svg id="Layer_1" data-name="Layer 1" xmlns="http://www.w3.org/2000/svg" xmlns:xlink="http://www.w3.org/1999/xlink" viewBox="0 0 2011.87 670.16"><defs><style>.cls-1{fill:url(#linear-gradient);}.cls-2{fill:#fff;}</style><linearGradient id="linear-gradient" x1="10.94" y1="611.93" x2="705.95" y2="33.4" gradientUnits="userSpaceOnUse"><stop offset="0" stop-color="#51ccf5"/><stop offset="0.28" stop-color="#5b9bdd"/><stop offset="0.61" stop-color="#6568c4"/><stop offset="0.86" stop-color="#6c48b5"/><stop offset="1" stop-color="#6e3caf"/></linearGradient></defs><title>logo-gradient-words</title><path class="cls-1" d="M311.4,367.51H232.78L84,591H0V588l154.93-224.3-1.54-2.31Q96.36,349,59,304.7T21.58,203.34q0-69.37,50.49-116.78t122.17-47.4H382.31V591H311.4ZM192.7,107q-42.39,0-70.53,28.9T94,203.34Q94,245,124.1,273.09t73.22,28.14H311.4V107Zm413.88,0V591H535.67V107H381.51V39.16H760.74V107Z"/><path class="cls-2" d="M823.74,40.62H898.4a77.31,77.31,0,0,1,28,4.86A64.81,64.81,0,0,1,948,58.92a58.45,58.45,0,0,1,13.87,20.45,67.73,67.73,0,0,1,4.86,25.89,53.69,53.69,0,0,1-3.43,19.3,57.86,57.86,0,0,1-9.44,16.31,69.68,69.68,0,0,1-14,12.87A70.69,70.69,0,0,1,923,162.46l-.28,2,54.91,78.66v2.29H933.29l-52.91-76.94h-18v76.94H823.74ZM898.11,133q13.15,0,21.59-8t8.44-20.3a31,31,0,0,0-1.86-10.59A26.6,26.6,0,0,0,920.7,85a27.55,27.55,0,0,0-9.29-6.44,31.8,31.8,0,0,0-12.73-2.43H862.36V133Z"/><path class="cls-2" d="M1126.36,211.66a78.57,78.57,0,0,1-26.17,27.74Q1083.74,250,1060,250a77.12,77.12,0,0,1-29.6-5.58,70.62,70.62,0,0,1-39.19-39.19,77.91,77.91,0,0,1-5.58-29.89,76.55,76.55,0,0,1,5.44-28.74,72.55,72.55,0,0,1,38.18-39.9,70.34,70.34,0,0,1,29.32-6q16.88,0,30,5.58a61.37,61.37,0,0,1,22,15.44A66.51,66.51,0,0,1,1124.07,145a90.06,90.06,0,0,1,4.57,29.18v3.43a19.41,19.41,0,0,0-.28,3.15,16.05,16.05,0,0,0-.29,3.14H1022.53a39.19,39.19,0,0,0,4.72,14.73,35.32,35.32,0,0,0,8.87,10.3,34.26,34.26,0,0,0,11.58,6,45.12,45.12,0,0,0,12.87,1.86q12.87,0,21.31-5.87a42.66,42.66,0,0,0,13.3-14.73Zm-34-54.35a24.27,24.27,0,0,0-2.43-8.29,29.29,29.29,0,0,0-6.29-8.58,33.07,33.07,0,0,0-10.3-6.58,38,38,0,0,0-14.73-2.57,34.3,34.3,0,0,0-21.17,6.86q-9.15,6.87-12.87,19.16Z"/><path class="cls-2" d="M1258.5,228.53h-2.29q-5.14,8.88-16,15.16t-26.88,6.3a60.62,60.62,0,0,1-25.6-5.58A68.46,68.46,0,0,1,1166.25,229a73.44,73.44,0,0,1-14.73-23.59,85.78,85.78,0,0,1,0-60.07,73.48,73.48,0,0,1,14.73-23.6,68.59,68.59,0,0,1,21.46-15.44,60.62,60.62,0,0,1,25.6-5.58q16,0,26.88,6.29t16,15.16h2.29l-2.29-20V40.62h37.47V245.41H1258.5ZM1221,215.38a37.52,37.52,0,0,0,14.16-2.72,35.43,35.43,0,0,0,11.87-7.87,39.09,39.09,0,0,0,8.29-12.58,46.78,46.78,0,0,0,0-33.75,39.25,39.25,0,0,0-8.29-12.59,35.56,35.56,0,0,0-11.87-7.86,37.52,37.52,0,0,0-14.16-2.72,35.9,35.9,0,0,0-14.16,2.86,37.35,37.35,0,0,0-11.87,8,39.22,39.22,0,0,0-8.3,12.58,45.4,45.4,0,0,0,0,33.18,39.16,39.16,0,0,0,8.3,12.59,37.35,37.35,0,0,0,11.87,8A35.9,35.9,0,0,0,1221,215.38Z"/><path class="cls-2" d="M1325.71,40.62h37.47v61.49l-2.29,20h2.29q5.14-8.86,16-15.16t26.88-6.29a60.69,60.69,0,0,1,25.6,5.58,68.66,68.66,0,0,1,21.45,15.44,73.31,73.31,0,0,1,14.73,23.6,85.63,85.63,0,0,1,0,60.07A73.27,73.27,0,0,1,1453.13,229a68.53,68.53,0,0,1-21.45,15.45,60.69,60.69,0,0,1-25.6,5.58q-16,0-26.88-6.3t-16-15.16h-2.29v16.88h-35.18Zm72.65,174.76a35.94,35.94,0,0,0,14.16-2.86,37.35,37.35,0,0,0,11.87-8,39.14,39.14,0,0,0,8.29-12.59,45.26,45.26,0,0,0,0-33.18,39.2,39.2,0,0,0-8.29-12.58,37.35,37.35,0,0,0-11.87-8,35.94,35.94,0,0,0-14.16-2.86A37.45,37.45,0,0,0,1384.2,138a35.36,35.36,0,0,0-11.87,7.86,39.08,39.08,0,0,0-8.29,12.59,46.78,46.78,0,0,0,0,33.75,38.93,38.93,0,0,0,8.29,12.58,35.24,35.24,0,0,0,11.87,7.87A37.45,37.45,0,0,0,1398.36,215.38Z"/><path class="cls-2" d="M1583.7,230.54h-2.29a63.5,63.5,0,0,1-15.87,13.73q-9.3,5.72-23.89,5.72a58.13,58.13,0,0,1-20.45-3.58,53,53,0,0,1-16.73-9.87,43.83,43.83,0,0,1-11.15-15.16,46.65,46.65,0,0,1-4-19.45,43.82,43.82,0,0,1,4.29-19.59,44.67,44.67,0,0,1,12-15,54.41,54.41,0,0,1,18.16-9.58,75.42,75.42,0,0,1,22.74-3.29q13.73,0,22.59,2.15A110.85,110.85,0,0,1,1583.7,161v-4.29a22.91,22.91,0,0,0-8.87-18.45q-8.86-7.29-22-7.29-19.45,0-32.89,16.3l-27.17-18.59q22.3-28,60.92-28,32.61,0,49.77,15.3t17.16,45.34v84.09h-36.9Zm0-42a78.35,78.35,0,0,0-13.59-5,60,60,0,0,0-15.3-1.85q-13.44,0-20.73,5.86t-7.3,14.44a16.18,16.18,0,0,0,7,13.73,26.59,26.59,0,0,0,16.16,5.15,34.45,34.45,0,0,0,24.45-9.87,31.85,31.85,0,0,0,9.3-22.45Z"/><path class="cls-2" d="M1781.91,209.66a78.16,78.16,0,0,1-25.6,29q-16.44,11.3-41,11.3a78,78,0,0,1-29.89-5.58,69.58,69.58,0,0,1-23.45-15.59,72.33,72.33,0,0,1-15.45-23.6,77.91,77.91,0,0,1-5.58-29.89,79,79,0,0,1,5.58-30,69.31,69.31,0,0,1,38.9-39,78,78,0,0,1,29.89-5.58q24.32,0,40.9,11.16a66,66,0,0,1,24.31,28.88L1746.16,155q-4.86-9.72-12.44-14.73t-19-5a34.91,34.91,0,0,0-14,2.86,36.12,36.12,0,0,0-11.58,8,36.72,36.72,0,0,0-7.87,12.58,49.55,49.55,0,0,0,0,33.18,36.67,36.67,0,0,0,7.87,12.59,36.12,36.12,0,0,0,11.58,8,34.91,34.91,0,0,0,14,2.86q11.73,0,19.88-5.29a36.93,36.93,0,0,0,13-15.31Z"/><path class="cls-2" d="M1804.8,40.62h37.47V152.17H1844l46.91-46.91h46.34v2.29l-52.06,50.62,56.35,85v2.29h-44.34l-38.33-61.5-16.58,16.31v45.19H1804.8Z"/><path class="cls-2" d="M867.22,588.64V420.46H810V383.85H963v36.61H905.83V588.64Z"/><path class="cls-2" d="M985.92,383.85h37.47v57.49l-2.29,25.45h2.29a46.34,46.34,0,0,1,17.3-16.44,50.23,50.23,0,0,1,25.31-6.44q27.18,0,40.19,16t13,43.76v84.95h-37.47V508.27q0-14.59-6.86-22.17t-19.16-7.58a28.13,28.13,0,0,0-13.73,3.29,30.59,30.59,0,0,0-10.16,9,41.94,41.94,0,0,0-6.29,13.3,59.09,59.09,0,0,0-2.14,16.16v68.36H985.92Z"/><path class="cls-2" d="M1216.45,443.91a78,78,0,0,1,29.89,5.58,69.31,69.31,0,0,1,38.9,39,83.76,83.76,0,0,1,0,60.07,69.39,69.39,0,0,1-38.9,39,83,83,0,0,1-59.78,0,69.31,69.31,0,0,1-38.9-39,83.62,83.62,0,0,1,0-60.07,69.23,69.23,0,0,1,38.9-39A77.91,77.91,0,0,1,1216.45,443.91Zm0,114.7a36.73,36.73,0,0,0,13.87-2.72,35.39,35.39,0,0,0,11.87-7.87,37.21,37.21,0,0,0,8.15-12.58,48.81,48.81,0,0,0,0-33.75,37.26,37.26,0,0,0-8.15-12.59,35.36,35.36,0,0,0-11.87-7.86,37.11,37.11,0,0,0-27.89,0,35.66,35.66,0,0,0-11.72,7.86,37.11,37.11,0,0,0-8.15,12.59,48.81,48.81,0,0,0,0,33.75,37.06,37.06,0,0,0,8.15,12.58,35.69,35.69,0,0,0,11.72,7.87A36.41,36.41,0,0,0,1216.45,558.61Z"/><path class="cls-2" d="M1312,448.49h35.18v18.3h2.29a49.18,49.18,0,0,1,17.87-16.59,50.62,50.62,0,0,1,25-6.29q16,0,26.89,7.44a41.74,41.74,0,0,1,15.44,18.3,57.62,57.62,0,0,1,18.59-18.16q12-7.58,29.18-7.58,12.87,0,22.31,4.15a41.67,41.67,0,0,1,15.59,11.58,50.64,50.64,0,0,1,9.29,17.88,78.42,78.42,0,0,1,3.15,22.74v88.38h-37.47V507.12q0-28.59-23.45-28.6a25.94,25.94,0,0,0-13.16,3.29,29.18,29.18,0,0,0-9.58,8.87,43.5,43.5,0,0,0-6,13.3,61.71,61.71,0,0,0-2.14,16.58v68.08h-37.47V507.12q0-28.59-24.6-28.6a23.85,23.85,0,0,0-12.59,3.29,29,29,0,0,0-9.15,8.87,43.21,43.21,0,0,0-5.72,13.3,65.63,65.63,0,0,0-2,16.58v68.08H1312Z"/><path class="cls-2" d="M1617.74,593.21a80.16,80.16,0,0,1-24.46-3.43,67.54,67.54,0,0,1-18.59-9,59,59,0,0,1-13.3-12.87,61.74,61.74,0,0,1-8.29-14.73l33.46-14.3q4.86,10.88,13,16.16a32.6,32.6,0,0,0,18.16,5.29q10.29,0,16.3-3.72t6-8.86a11,11,0,0,0-5-9.3q-5-3.57-17.3-6.43L1598,527.72a69.22,69.22,0,0,1-13.58-4.58,53.06,53.06,0,0,1-12.73-8,40.46,40.46,0,0,1-9.44-11.73,33.07,33.07,0,0,1-3.72-16,37.12,37.12,0,0,1,4.44-18.31,41.23,41.23,0,0,1,12.15-13.59,58.57,58.57,0,0,1,18.16-8.58,81,81,0,0,1,22.46-3q20,0,35.75,7.87t23.17,25L1642.34,490a24.82,24.82,0,0,0-11.73-12,35.34,35.34,0,0,0-15.45-3.72,28.72,28.72,0,0,0-14,3.29q-6,3.28-6,8.44,0,4.86,5,7.72a58,58,0,0,0,13.58,5.15l21.46,5.15q21.45,5.14,31.89,16.44a38.11,38.11,0,0,1,10.44,26.74,37.46,37.46,0,0,1-4.29,17.45,46.69,46.69,0,0,1-12.16,14.73,59.71,59.71,0,0,1-18.88,10.16A76.32,76.32,0,0,1,1617.74,593.21Z"/><path class="cls-2" d="M1768.18,443.91a78,78,0,0,1,29.89,5.58,69.31,69.31,0,0,1,38.9,39,83.62,83.62,0,0,1,0,60.07,69.39,69.39,0,0,1-38.9,39,83,83,0,0,1-59.78,0,69.39,69.39,0,0,1-38.9-39,83.62,83.62,0,0,1,0-60.07,69.31,69.31,0,0,1,38.9-39A78,78,0,0,1,1768.18,443.91Zm0,114.7a36.73,36.73,0,0,0,13.87-2.72,35.39,35.39,0,0,0,11.87-7.87,37.21,37.21,0,0,0,8.15-12.58,48.81,48.81,0,0,0,0-33.75,37.26,37.26,0,0,0-8.15-12.59,35.36,35.36,0,0,0-11.87-7.86,37.11,37.11,0,0,0-27.89,0,35.76,35.76,0,0,0-11.72,7.86,37.26,37.26,0,0,0-8.15,12.59,48.81,48.81,0,0,0,0,33.75,37.21,37.21,0,0,0,8.15,12.58,35.79,35.79,0,0,0,11.72,7.87A36.41,36.41,0,0,0,1768.18,558.61Z"/><path class="cls-2" d="M1898.89,466.79h2.29a47.52,47.52,0,0,1,17.73-16.73,51.85,51.85,0,0,1,25.46-6.15,58.43,58.43,0,0,1,23.17,4.29A42.38,42.38,0,0,1,1984,460.36a53.68,53.68,0,0,1,9.73,18.87,85.44,85.44,0,0,1,3.29,24.46v84.95h-37.47V508.27q0-15.16-6.72-22.46t-19.59-7.29a27.32,27.32,0,0,0-13.59,3.29,31.61,31.61,0,0,0-10,8.87,39.93,39.93,0,0,0-6.29,13.15,59.14,59.14,0,0,0-2.15,16.16v68.65h-37.47V448.49h35.18Z"/></svg>