<svg id="Layer_1" data-name="Layer 1" xmlns="http://www.w3.org/2000/svg" xmlns:xlink="http://www.w3.org/1999/xlink" viewBox="0 0 1859 1024"><defs><style>.cls-1{fill:url(#linear-gradient);}.cls-2{fill:url(#linear-gradient-2);}.cls-3{fill:url(#linear-gradient-3);}.cls-4{fill:url(#linear-gradient-4);}.cls-5{fill:url(#linear-gradient-5);}.cls-6{fill:url(#linear-gradient-6);}.cls-7{fill:url(#linear-gradient-7);}.cls-8{fill:url(#linear-gradient-8);}.cls-9{fill:url(#linear-gradient-9);}.cls-10{fill:url(#linear-gradient-10);}.cls-11{fill:url(#linear-gradient-11);}.cls-12{fill:url(#linear-gradient-12);}.cls-13{fill:url(#linear-gradient-13);}.cls-14{fill:url(#linear-gradient-14);}.cls-15{fill:url(#linear-gradient-15);}.cls-16{fill:url(#linear-gradient-16);}</style><linearGradient id="linear-gradient" x1="-85.56" y1="793.61" x2="88.13" y2="619.91" gradientUnits="userSpaceOnUse"><stop offset="0" stop-color="#106f87"/><stop offset="1" stop-color="#166387"/></linearGradient><linearGradient id="linear-gradient-2" x1="-85.56" y1="1059.61" x2="88.13" y2="885.91" xlink:href="#linear-gradient"/><linearGradient id="linear-gradient-3" x1="136" y1="839.76" x2="364.58" y2="839.76" gradientUnits="userSpaceOnUse"><stop offset="0" stop-color="#4b4b4b"/><stop offset="1" stop-color="#5e5e5e"/></linearGradient><linearGradient id="linear-gradient-4" x1="163.44" y1="1192.61" x2="337.13" y2="1018.91" xlink:href="#linear-gradient"/><linearGradient id="linear-gradient-5" x1="412.44" y1="793.61" x2="586.13" y2="619.91" xlink:href="#linear-gradient"/><linearGradient id="linear-gradient-6" x1="385" y1="972.76" x2="613.58" y2="972.76" xlink:href="#linear-gradient-3"/><linearGradient id="linear-gradient-7" x1="634" y1="839.76" x2="862.58" y2="839.76" xlink:href="#linear-gradient-3"/><linearGradient id="linear-gradient-8" x1="661.44" y1="1192.61" x2="835.13" y2="1018.91" xlink:href="#linear-gradient"/><linearGradient id="linear-gradient-9" x1="883" y1="706.76" x2="1111.58" y2="706.76" xlink:href="#linear-gradient-3"/><linearGradient id="linear-gradient-10" x1="910.44" y1="1059.61" x2="1084.13" y2="885.91" xlink:href="#linear-gradient"/><linearGradient id="linear-gradient-11" x1="1159.44" y1="926.61" x2="1333.13" y2="752.91" xlink:href="#linear-gradient"/><linearGradient id="linear-gradient-12" x1="1159.44" y1="1192.61" x2="1333.13" y2="1018.91" xlink:href="#linear-gradient"/><linearGradient id="linear-gradient-13" x1="1408.44" y1="793.61" x2="1582.13" y2="619.91" xlink:href="#linear-gradient"/><linearGradient id="linear-gradient-14" x1="1381" y1="972.76" x2="1609.58" y2="972.76" xlink:href="#linear-gradient-3"/><linearGradient id="linear-gradient-15" x1="1657.44" y1="926.61" x2="1831.13" y2="752.91" xlink:href="#linear-gradient"/><linearGradient id="linear-gradient-16" x1="1657.44" y1="1192.61" x2="1831.13" y2="1018.91" xlink:href="#linear-gradient"/></defs><title>bg-hex</title><g id="Page-1"><g id="Artboard-Copy"><g id="Group"><g id="Group-7"><path id="Polygon-4" class="cls-1" d="M-9.21,586.14c5.8-3.2,15.19-3.2,21,0l93.3,51.6c5.8,3.21,10.5,11.18,10.5,17.82V758c0,6.63-4.7,14.61-10.5,17.81l-93.3,51.6c-5.79,3.21-15.19,3.21-21,0l-93.29-51.6c-5.8-3.2-10.5-11.17-10.5-17.81V655.56c0-6.63,4.69-14.61,10.5-17.82Z"/></g></g></g></g><g id="Page-1-2" data-name="Page-1"><g id="Artboard-Copy-2" data-name="Artboard-Copy"><g id="Group-2" data-name="Group"><g id="Group-7-2" data-name="Group-7"><path id="Polygon-4-2" data-name="Polygon-4" class="cls-2" d="M-9.21,852.14c5.8-3.2,15.19-3.2,21,0l93.3,51.6c5.8,3.21,10.5,11.18,10.5,17.82V1024c0,6.63-4.7,14.61-10.5,17.81l-93.3,51.6c-5.79,3.21-15.19,3.21-21,0l-93.29-51.6c-5.8-3.2-10.5-11.17-10.5-17.81V921.56c0-6.63,4.69-14.61,10.5-17.82Z"/></g></g></g></g><g id="Page-1-3" data-name="Page-1"><g id="Artboard-Copy-3" data-name="Artboard-Copy"><g id="Group-3" data-name="Group"><g id="Group-7-3" data-name="Group-7"><path id="Polygon-4-3" data-name="Polygon-4" class="cls-3" d="M239.79,719.14c5.8-3.2,15.19-3.2,21,0l93.3,51.6c5.8,3.21,10.5,11.18,10.5,17.82V891c0,6.63-4.7,14.61-10.5,17.81l-93.3,51.6c-5.79,3.21-15.19,3.21-21,0l-93.29-51.6C140.7,905.57,136,897.6,136,891V788.56c0-6.63,4.69-14.61,10.5-17.82Z"/></g></g></g></g><g id="Page-1-4" data-name="Page-1"><g id="Artboard-Copy-4" data-name="Artboard-Copy"><g id="Group-4" data-name="Group"><g id="Group-7-4" data-name="Group-7"><path id="Polygon-4-4" data-name="Polygon-4" class="cls-4" d="M239.79,985.14c5.8-3.2,15.19-3.2,21,0l93.3,51.6c5.8,3.21,10.5,11.18,10.5,17.82V1157c0,6.63-4.7,14.61-10.5,17.81l-93.3,51.6c-5.79,3.21-15.19,3.21-21,0l-93.29-51.6c-5.8-3.2-10.5-11.17-10.5-17.81v-102.4c0-6.63,4.69-14.61,10.5-17.82Z"/></g></g></g></g><g id="Page-1-5" data-name="Page-1"><g id="Artboard-Copy-5" data-name="Artboard-Copy"><g id="Group-5" data-name="Group"><g id="Group-7-5" data-name="Group-7"><path id="Polygon-4-5" data-name="Polygon-4" class="cls-5" d="M488.79,586.14c5.8-3.2,15.19-3.2,21,0l93.3,51.6c5.8,3.21,10.5,11.18,10.5,17.82V758c0,6.63-4.7,14.61-10.5,17.81l-93.3,51.6c-5.79,3.21-15.19,3.21-21,0l-93.29-51.6C389.7,772.57,385,764.6,385,758V655.56c0-6.63,4.69-14.61,10.5-17.82Z"/></g></g></g></g><g id="Page-1-6" data-name="Page-1"><g id="Artboard-Copy-6" data-name="Artboard-Copy"><g id="Group-6" data-name="Group"><g id="Group-7-6" data-name="Group-7"><path id="Polygon-4-6" data-name="Polygon-4" class="cls-6" d="M488.79,852.14c5.8-3.2,15.19-3.2,21,0l93.3,51.6c5.8,3.21,10.5,11.18,10.5,17.82V1024c0,6.63-4.7,14.61-10.5,17.81l-93.3,51.6c-5.79,3.21-15.19,3.21-21,0l-93.29-51.6c-5.8-3.2-10.5-11.17-10.5-17.81V921.56c0-6.63,4.69-14.61,10.5-17.82Z"/></g></g></g></g><g id="Page-1-7" data-name="Page-1"><g id="Artboard-Copy-7" data-name="Artboard-Copy"><g id="Group-7-7" data-name="Group"><g id="Group-7-8" data-name="Group-7"><path id="Polygon-4-7" data-name="Polygon-4" class="cls-7" d="M737.79,719.14c5.8-3.2,15.19-3.2,21,0l93.3,51.6c5.8,3.21,10.5,11.18,10.5,17.82V891c0,6.63-4.7,14.61-10.5,17.81l-93.3,51.6c-5.79,3.21-15.19,3.21-21,0l-93.29-51.6C638.7,905.57,634,897.6,634,891V788.56c0-6.63,4.69-14.61,10.5-17.82Z"/></g></g></g></g><g id="Page-1-8" data-name="Page-1"><g id="Artboard-Copy-8" data-name="Artboard-Copy"><g id="Group-8" data-name="Group"><g id="Group-7-9" data-name="Group-7"><path id="Polygon-4-8" data-name="Polygon-4" class="cls-8" d="M737.79,985.14c5.8-3.2,15.19-3.2,21,0l93.3,51.6c5.8,3.21,10.5,11.18,10.5,17.82V1157c0,6.63-4.7,14.61-10.5,17.81l-93.3,51.6c-5.79,3.21-15.19,3.21-21,0l-93.29-51.6c-5.8-3.2-10.5-11.17-10.5-17.81v-102.4c0-6.63,4.69-14.61,10.5-17.82Z"/></g></g></g></g><g id="Page-1-9" data-name="Page-1"><g id="Artboard-Copy-9" data-name="Artboard-Copy"><g id="Group-9" data-name="Group"><g id="Group-7-10" data-name="Group-7"><path id="Polygon-4-9" data-name="Polygon-4" class="cls-9" d="M986.79,586.14c5.8-3.2,15.19-3.2,21,0l93.3,51.6c5.8,3.21,10.5,11.18,10.5,17.82V758c0,6.63-4.7,14.61-10.5,17.81l-93.3,51.6c-5.79,3.21-15.19,3.21-21,0l-93.29-51.6C887.7,772.57,883,764.6,883,758V655.56c0-6.63,4.69-14.61,10.5-17.82Z"/></g></g></g></g><g id="Page-1-10" data-name="Page-1"><g id="Artboard-Copy-10" data-name="Artboard-Copy"><g id="Group-10" data-name="Group"><g id="Group-7-11" data-name="Group-7"><path id="Polygon-4-10" data-name="Polygon-4" class="cls-10" d="M986.79,852.14c5.8-3.2,15.19-3.2,21,0l93.3,51.6c5.8,3.21,10.5,11.18,10.5,17.82V1024c0,6.63-4.7,14.61-10.5,17.81l-93.3,51.6c-5.79,3.21-15.19,3.21-21,0l-93.29-51.6c-5.8-3.2-10.5-11.17-10.5-17.81V921.56c0-6.63,4.69-14.61,10.5-17.82Z"/></g></g></g></g><g id="Page-1-11" data-name="Page-1"><g id="Artboard-Copy-11" data-name="Artboard-Copy"><g id="Group-11" data-name="Group"><g id="Group-7-12" data-name="Group-7"><path id="Polygon-4-11" data-name="Polygon-4" class="cls-11" d="M1235.79,719.14c5.8-3.2,15.19-3.2,21,0l93.3,51.6c5.8,3.21,10.5,11.18,10.5,17.82V891c0,6.63-4.7,14.61-10.5,17.81l-93.3,51.6c-5.79,3.21-15.19,3.21-21,0l-93.29-51.6c-5.8-3.2-10.5-11.17-10.5-17.81V788.56c0-6.63,4.69-14.61,10.5-17.82Z"/></g></g></g></g><g id="Page-1-12" data-name="Page-1"><g id="Artboard-Copy-12" data-name="Artboard-Copy"><g id="Group-12" data-name="Group"><g id="Group-7-13" data-name="Group-7"><path id="Polygon-4-12" data-name="Polygon-4" class="cls-12" d="M1235.79,985.14c5.8-3.2,15.19-3.2,21,0l93.3,51.6c5.8,3.21,10.5,11.18,10.5,17.82V1157c0,6.63-4.7,14.61-10.5,17.81l-93.3,51.6c-5.79,3.21-15.19,3.21-21,0l-93.29-51.6c-5.8-3.2-10.5-11.17-10.5-17.81v-102.4c0-6.63,4.69-14.61,10.5-17.82Z"/></g></g></g></g><g id="Page-1-13" data-name="Page-1"><g id="Artboard-Copy-13" data-name="Artboard-Copy"><g id="Group-13" data-name="Group"><g id="Group-7-14" data-name="Group-7"><path id="Polygon-4-13" data-name="Polygon-4" class="cls-13" d="M1484.79,586.14c5.8-3.2,15.19-3.2,21,0l93.3,51.6c5.8,3.21,10.5,11.18,10.5,17.82V758c0,6.63-4.7,14.61-10.5,17.81l-93.3,51.6c-5.79,3.21-15.19,3.21-21,0l-93.29-51.6c-5.8-3.2-10.5-11.17-10.5-17.81V655.56c0-6.63,4.69-14.61,10.5-17.82Z"/></g></g></g></g><g id="Page-1-14" data-name="Page-1"><g id="Artboard-Copy-14" data-name="Artboard-Copy"><g id="Group-14" data-name="Group"><g id="Group-7-15" data-name="Group-7"><path id="Polygon-4-14" data-name="Polygon-4" class="cls-14" d="M1484.79,852.14c5.8-3.2,15.19-3.2,21,0l93.3,51.6c5.8,3.21,10.5,11.18,10.5,17.82V1024c0,6.63-4.7,14.61-10.5,17.81l-93.3,51.6c-5.79,3.21-15.19,3.21-21,0l-93.29-51.6c-5.8-3.2-10.5-11.17-10.5-17.81V921.56c0-6.63,4.69-14.61,10.5-17.82Z"/></g></g></g></g><g id="Page-1-15" data-name="Page-1"><g id="Artboard-Copy-15" data-name="Artboard-Copy"><g id="Group-15" data-name="Group"><g id="Group-7-16" data-name="Group-7"><path id="Polygon-4-15" data-name="Polygon-4" class="cls-15" d="M1733.79,719.14c5.8-3.2,15.19-3.2,21,0l93.3,51.6c5.8,3.21,10.5,11.18,10.5,17.82V891c0,6.63-4.7,14.61-10.5,17.81l-93.3,51.6c-5.79,3.21-15.19,3.21-21,0l-93.29-51.6c-5.8-3.2-10.5-11.17-10.5-17.81V788.56c0-6.63,4.69-14.61,10.5-17.82Z"/></g></g></g></g><g id="Page-1-16" data-name="Page-1"><g id="Artboard-Copy-16" data-name="Artboard-Copy"><g id="Group-16" data-name="Group"><g id="Group-7-17" data-name="Group-7"><path id="Polygon-4-16" data-name="Polygon-4" class="cls-16" d="M1733.79,985.14c5.8-3.2,15.19-3.2,21,0l93.3,51.6c5.8,3.21,10.5,11.18,10.5,17.82V1157c0,6.63-4.7,14.61-10.5,17.81l-93.3,51.6c-5.79,3.21-15.19,3.21-21,0l-93.29-51.6c-5.8-3.2-10.5-11.17-10.5-17.81v-102.4c0-6.63,4.69-14.61,10.5-17.82Z"/></g></g></g></g></svg>