<?xml version="1.0" encoding="utf-8"?>
<!-- Generator: Adobe Illustrator 22.1.0, SVG Export Plug-In . SVG Version: 6.00 Build 0)  -->
<svg version="1.1" id="Layer_1" xmlns="http://www.w3.org/2000/svg" xmlns:xlink="http://www.w3.org/1999/xlink" x="0px" y="0px"
	 viewBox="0 0 5851 1024" style="enable-background:new 0 0 5851 1024;" xml:space="preserve">
<style type="text/css">
	.st0{fill:url(#Polygon-4_49_);}
	.st1{fill:url(#Polygon-4_50_);}
	.st2{fill:url(#Polygon-4_51_);}
	.st3{fill:url(#Polygon-4_52_);}
	.st4{fill:url(#Polygon-4_53_);}
	.st5{fill:url(#Polygon-4_54_);}
	.st6{fill:url(#Polygon-4_55_);}
	.st7{fill:#4B4B4B;}
	.st8{fill:url(#Polygon-4_56_);}
	.st9{fill:url(#Polygon-4_57_);}
	.st10{fill:url(#Polygon-4_58_);}
	.st11{fill:url(#Polygon-4_59_);}
	.st12{fill:url(#Polygon-4_60_);}
	.st13{fill:url(#Polygon-4_61_);}
	.st14{fill:url(#Polygon-4_62_);}
	.st15{fill:url(#Polygon-4_63_);}
	.st16{fill:url(#Polygon-4_64_);}
	.st17{fill:url(#Polygon-4_65_);}
	.st18{fill:url(#Polygon-4_66_);}
	.st19{fill:#106F87;}
	.st20{fill:url(#Polygon-4_67_);}
	.st21{fill:url(#Polygon-4_68_);}
	.st22{fill:url(#Polygon-4_69_);}
	.st23{fill:url(#Polygon-4_70_);}
	.st24{fill:url(#Polygon-4_71_);}
	.st25{fill:url(#Polygon-4_72_);}
	.st26{fill:url(#Polygon-4_73_);}
	.st27{fill:url(#Polygon-4_74_);}
	.st28{fill:#106F87;stroke:#106F87;stroke-miterlimit:10;}
	.st29{fill:url(#Polygon-4_75_);}
	.st30{fill:url(#Polygon-4_76_);}
	.st31{fill:url(#Polygon-4_77_);}
	.st32{fill:url(#Polygon-4_78_);}
	.st33{fill:url(#Polygon-4_79_);}
	.st34{fill:url(#Polygon-4_80_);}
	.st35{fill:url(#Polygon-4_81_);}
	.st36{fill:url(#Polygon-4_82_);}
	.st37{fill:url(#Polygon-4_83_);}
</style>
<g id="Page-1">
	<g id="Artboard-Copy" transform="translate(-497.000000, -461.000000)">
		<g id="Group" transform="translate(497.000000, 461.000000)">
			<g id="Group-7">
				<linearGradient id="Polygon-4_49_" gradientUnits="userSpaceOnUse" x1="-85.5596" y1="793.6066" x2="88.1348" y2="619.9121">
					<stop  offset="0" style="stop-color:#106F87"/>
					<stop  offset="1" style="stop-color:#166387"/>
				</linearGradient>
				<path id="Polygon-4" class="st0" d="M-9.2,586.1c5.8-3.2,15.2-3.2,21,0l93.3,51.6c5.8,3.2,10.5,11.2,10.5,17.8V758
					c0,6.6-4.7,14.6-10.5,17.8l-93.3,51.6c-5.8,3.2-15.2,3.2-21,0l-93.3-51.6c-5.8-3.2-10.5-11.2-10.5-17.8V655.6
					c0-6.6,4.7-14.6,10.5-17.8L-9.2,586.1z"/>
			</g>
		</g>
	</g>
</g>
<g id="Page-1_1_">
	<g id="Artboard-Copy_1_" transform="translate(-497.000000, -461.000000)">
		<g id="Group_1_" transform="translate(497.000000, 461.000000)">
			<g id="Group-7_1_">
				<linearGradient id="Polygon-4_50_" gradientUnits="userSpaceOnUse" x1="-85.5596" y1="1059.6066" x2="88.1348" y2="885.9121">
					<stop  offset="0" style="stop-color:#106F87"/>
					<stop  offset="1" style="stop-color:#166387"/>
				</linearGradient>
				<path id="Polygon-4_1_" class="st1" d="M-9.2,852.1c5.8-3.2,15.2-3.2,21,0l93.3,51.6c5.8,3.2,10.5,11.2,10.5,17.8V1024
					c0,6.6-4.7,14.6-10.5,17.8l-93.3,51.6c-5.8,3.2-15.2,3.2-21,0l-93.3-51.6c-5.8-3.2-10.5-11.2-10.5-17.8V921.6
					c0-6.6,4.7-14.6,10.5-17.8L-9.2,852.1z"/>
			</g>
		</g>
	</g>
</g>
<g id="Page-1_2_">
	<g id="Artboard-Copy_2_" transform="translate(-497.000000, -461.000000)">
		<g id="Group_2_" transform="translate(497.000000, 461.000000)">
			<g id="Group-7_2_">
				<linearGradient id="Polygon-4_51_" gradientUnits="userSpaceOnUse" x1="136" y1="839.7593" x2="364.5752" y2="839.7593">
					<stop  offset="0" style="stop-color:#4B4B4B"/>
					<stop  offset="1" style="stop-color:#5E5E5E"/>
				</linearGradient>
				<path id="Polygon-4_2_" class="st2" d="M239.8,719.1c5.8-3.2,15.2-3.2,21,0l93.3,51.6c5.8,3.2,10.5,11.2,10.5,17.8V891
					c0,6.6-4.7,14.6-10.5,17.8l-93.3,51.6c-5.8,3.2-15.2,3.2-21,0l-93.3-51.6c-5.8-3.2-10.5-11.2-10.5-17.8V788.6
					c0-6.6,4.7-14.6,10.5-17.8L239.8,719.1z"/>
			</g>
		</g>
	</g>
</g>
<g id="Page-1_3_">
	<g id="Artboard-Copy_3_" transform="translate(-497.000000, -461.000000)">
		<g id="Group_3_" transform="translate(497.000000, 461.000000)">
			<g id="Group-7_3_">
				<linearGradient id="Polygon-4_52_" gradientUnits="userSpaceOnUse" x1="163.4404" y1="1192.6066" x2="337.1348" y2="1018.9121">
					<stop  offset="0" style="stop-color:#106F87"/>
					<stop  offset="1" style="stop-color:#166387"/>
				</linearGradient>
				<path id="Polygon-4_3_" class="st3" d="M239.8,985.1c5.8-3.2,15.2-3.2,21,0l93.3,51.6c5.8,3.2,10.5,11.2,10.5,17.8V1157
					c0,6.6-4.7,14.6-10.5,17.8l-93.3,51.6c-5.8,3.2-15.2,3.2-21,0l-93.3-51.6c-5.8-3.2-10.5-11.2-10.5-17.8v-102.4
					c0-6.6,4.7-14.6,10.5-17.8L239.8,985.1z"/>
			</g>
		</g>
	</g>
</g>
<g id="Page-1_7_">
	<g id="Artboard-Copy_7_" transform="translate(-497.000000, -461.000000)">
		<g id="Group_7_" transform="translate(497.000000, 461.000000)">
			<g id="Group-7_7_">
				<linearGradient id="Polygon-4_53_" gradientUnits="userSpaceOnUse" x1="412.4404" y1="793.6066" x2="586.1348" y2="619.9121">
					<stop  offset="0" style="stop-color:#106F87"/>
					<stop  offset="1" style="stop-color:#166387"/>
				</linearGradient>
				<path id="Polygon-4_7_" class="st4" d="M488.8,586.1c5.8-3.2,15.2-3.2,21,0l93.3,51.6c5.8,3.2,10.5,11.2,10.5,17.8V758
					c0,6.6-4.7,14.6-10.5,17.8l-93.3,51.6c-5.8,3.2-15.2,3.2-21,0l-93.3-51.6c-5.8-3.2-10.5-11.2-10.5-17.8V655.6
					c0-6.6,4.7-14.6,10.5-17.8L488.8,586.1z"/>
			</g>
		</g>
	</g>
</g>
<g id="Page-1_6_">
	<g id="Artboard-Copy_6_" transform="translate(-497.000000, -461.000000)">
		<g id="Group_6_" transform="translate(497.000000, 461.000000)">
			<g id="Group-7_6_">
				<linearGradient id="Polygon-4_54_" gradientUnits="userSpaceOnUse" x1="385" y1="972.7593" x2="613.5752" y2="972.7593">
					<stop  offset="0" style="stop-color:#4B4B4B"/>
					<stop  offset="1" style="stop-color:#5E5E5E"/>
				</linearGradient>
				<path id="Polygon-4_6_" class="st5" d="M488.8,852.1c5.8-3.2,15.2-3.2,21,0l93.3,51.6c5.8,3.2,10.5,11.2,10.5,17.8V1024
					c0,6.6-4.7,14.6-10.5,17.8l-93.3,51.6c-5.8,3.2-15.2,3.2-21,0l-93.3-51.6c-5.8-3.2-10.5-11.2-10.5-17.8V921.6
					c0-6.6,4.7-14.6,10.5-17.8L488.8,852.1z"/>
			</g>
		</g>
	</g>
</g>
<g id="Page-1_5_">
	<g id="Artboard-Copy_5_" transform="translate(-497.000000, -461.000000)">
		<g id="Group_5_" transform="translate(497.000000, 461.000000)">
			<g id="Group-7_5_">
				<linearGradient id="Polygon-4_55_" gradientUnits="userSpaceOnUse" x1="634" y1="839.7593" x2="862.5752" y2="839.7593">
					<stop  offset="0" style="stop-color:#4B4B4B"/>
					<stop  offset="1" style="stop-color:#5E5E5E"/>
				</linearGradient>
				<path id="Polygon-4_5_" class="st6" d="M737.8,719.1c5.8-3.2,15.2-3.2,21,0l93.3,51.6c5.8,3.2,10.5,11.2,10.5,17.8V891
					c0,6.6-4.7,14.6-10.5,17.8l-93.3,51.6c-5.8,3.2-15.2,3.2-21,0l-93.3-51.6c-5.8-3.2-10.5-11.2-10.5-17.8V788.6
					c0-6.6,4.7-14.6,10.5-17.8L737.8,719.1z"/>
			</g>
		</g>
	</g>
</g>
<g id="Page-1_4_">
	<g id="Artboard-Copy_4_" transform="translate(-497.000000, -461.000000)">
		<g id="Group_4_" transform="translate(497.000000, 461.000000)">
			<g id="Group-7_4_">
				<path id="Polygon-4_4_" class="st7" d="M737.8,985.1c5.8-3.2,15.2-3.2,21,0l93.3,51.6c5.8,3.2,10.5,11.2,10.5,17.8V1157
					c0,6.6-4.7,14.6-10.5,17.8l-93.3,51.6c-5.8,3.2-15.2,3.2-21,0l-93.3-51.6c-5.8-3.2-10.5-11.2-10.5-17.8v-102.4
					c0-6.6,4.7-14.6,10.5-17.8L737.8,985.1z"/>
			</g>
		</g>
	</g>
</g>
<g id="Page-1_15_">
	<g id="Artboard-Copy_15_" transform="translate(-497.000000, -461.000000)">
		<g id="Group_15_" transform="translate(497.000000, 461.000000)">
			<g id="Group-7_15_">
				<linearGradient id="Polygon-4_56_" gradientUnits="userSpaceOnUse" x1="883" y1="706.7593" x2="1111.5752" y2="706.7593">
					<stop  offset="0" style="stop-color:#4B4B4B"/>
					<stop  offset="1" style="stop-color:#5E5E5E"/>
				</linearGradient>
				<path id="Polygon-4_15_" class="st8" d="M986.8,586.1c5.8-3.2,15.2-3.2,21,0l93.3,51.6c5.8,3.2,10.5,11.2,10.5,17.8V758
					c0,6.6-4.7,14.6-10.5,17.8l-93.3,51.6c-5.8,3.2-15.2,3.2-21,0l-93.3-51.6c-5.8-3.2-10.5-11.2-10.5-17.8V655.6
					c0-6.6,4.7-14.6,10.5-17.8L986.8,586.1z"/>
			</g>
		</g>
	</g>
</g>
<g id="Page-1_14_">
	<g id="Artboard-Copy_14_" transform="translate(-497.000000, -461.000000)">
		<g id="Group_14_" transform="translate(497.000000, 461.000000)">
			<g id="Group-7_14_">
				<linearGradient id="Polygon-4_57_" gradientUnits="userSpaceOnUse" x1="910.4404" y1="1059.6066" x2="1084.1348" y2="885.9121">
					<stop  offset="0" style="stop-color:#106F87"/>
					<stop  offset="1" style="stop-color:#166387"/>
				</linearGradient>
				<path id="Polygon-4_14_" class="st9" d="M986.8,852.1c5.8-3.2,15.2-3.2,21,0l93.3,51.6c5.8,3.2,10.5,11.2,10.5,17.8V1024
					c0,6.6-4.7,14.6-10.5,17.8l-93.3,51.6c-5.8,3.2-15.2,3.2-21,0l-93.3-51.6c-5.8-3.2-10.5-11.2-10.5-17.8V921.6
					c0-6.6,4.7-14.6,10.5-17.8L986.8,852.1z"/>
			</g>
		</g>
	</g>
</g>
<g id="Page-1_13_">
	<g id="Artboard-Copy_13_" transform="translate(-497.000000, -461.000000)">
		<g id="Group_13_" transform="translate(497.000000, 461.000000)">
			<g id="Group-7_13_">
				<linearGradient id="Polygon-4_58_" gradientUnits="userSpaceOnUse" x1="1159.4403" y1="926.6066" x2="1333.1348" y2="752.9121">
					<stop  offset="0" style="stop-color:#106F87"/>
					<stop  offset="1" style="stop-color:#166387"/>
				</linearGradient>
				<path id="Polygon-4_13_" class="st10" d="M1235.8,719.1c5.8-3.2,15.2-3.2,21,0l93.3,51.6c5.8,3.2,10.5,11.2,10.5,17.8V891
					c0,6.6-4.7,14.6-10.5,17.8l-93.3,51.6c-5.8,3.2-15.2,3.2-21,0l-93.3-51.6c-5.8-3.2-10.5-11.2-10.5-17.8V788.6
					c0-6.6,4.7-14.6,10.5-17.8L1235.8,719.1z"/>
			</g>
		</g>
	</g>
</g>
<g id="Page-1_12_">
	<g id="Artboard-Copy_12_" transform="translate(-497.000000, -461.000000)">
		<g id="Group_12_" transform="translate(497.000000, 461.000000)">
			<g id="Group-7_12_">
				
					<linearGradient id="Polygon-4_59_" gradientUnits="userSpaceOnUse" x1="1159.4403" y1="1192.6066" x2="1333.1348" y2="1018.9121">
					<stop  offset="0" style="stop-color:#106F87"/>
					<stop  offset="1" style="stop-color:#166387"/>
				</linearGradient>
				<path id="Polygon-4_12_" class="st11" d="M1235.8,985.1c5.8-3.2,15.2-3.2,21,0l93.3,51.6c5.8,3.2,10.5,11.2,10.5,17.8V1157
					c0,6.6-4.7,14.6-10.5,17.8l-93.3,51.6c-5.8,3.2-15.2,3.2-21,0l-93.3-51.6c-5.8-3.2-10.5-11.2-10.5-17.8v-102.4
					c0-6.6,4.7-14.6,10.5-17.8L1235.8,985.1z"/>
			</g>
		</g>
	</g>
</g>
<g id="Page-1_11_">
	<g id="Artboard-Copy_11_" transform="translate(-497.000000, -461.000000)">
		<g id="Group_11_" transform="translate(497.000000, 461.000000)">
			<g id="Group-7_11_">
				<linearGradient id="Polygon-4_60_" gradientUnits="userSpaceOnUse" x1="1408.4403" y1="793.6066" x2="1582.1348" y2="619.9121">
					<stop  offset="0" style="stop-color:#106F87"/>
					<stop  offset="1" style="stop-color:#166387"/>
				</linearGradient>
				<path id="Polygon-4_11_" class="st12" d="M1484.8,586.1c5.8-3.2,15.2-3.2,21,0l93.3,51.6c5.8,3.2,10.5,11.2,10.5,17.8V758
					c0,6.6-4.7,14.6-10.5,17.8l-93.3,51.6c-5.8,3.2-15.2,3.2-21,0l-93.3-51.6c-5.8-3.2-10.5-11.2-10.5-17.8V655.6
					c0-6.6,4.7-14.6,10.5-17.8L1484.8,586.1z"/>
			</g>
		</g>
	</g>
</g>
<g id="Page-1_10_">
	<g id="Artboard-Copy_10_" transform="translate(-497.000000, -461.000000)">
		<g id="Group_10_" transform="translate(497.000000, 461.000000)">
			<g id="Group-7_10_">
				<linearGradient id="Polygon-4_61_" gradientUnits="userSpaceOnUse" x1="1381" y1="972.7593" x2="1609.5752" y2="972.7593">
					<stop  offset="0" style="stop-color:#4B4B4B"/>
					<stop  offset="1" style="stop-color:#5E5E5E"/>
				</linearGradient>
				<path id="Polygon-4_10_" class="st13" d="M1484.8,852.1c5.8-3.2,15.2-3.2,21,0l93.3,51.6c5.8,3.2,10.5,11.2,10.5,17.8V1024
					c0,6.6-4.7,14.6-10.5,17.8l-93.3,51.6c-5.8,3.2-15.2,3.2-21,0l-93.3-51.6c-5.8-3.2-10.5-11.2-10.5-17.8V921.6
					c0-6.6,4.7-14.6,10.5-17.8L1484.8,852.1z"/>
			</g>
		</g>
	</g>
</g>
<g id="Page-1_9_">
	<g id="Artboard-Copy_9_" transform="translate(-497.000000, -461.000000)">
		<g id="Group_9_" transform="translate(497.000000, 461.000000)">
			<g id="Group-7_9_">
				<linearGradient id="Polygon-4_62_" gradientUnits="userSpaceOnUse" x1="1657.4403" y1="926.6066" x2="1831.1348" y2="752.9121">
					<stop  offset="0" style="stop-color:#106F87"/>
					<stop  offset="1" style="stop-color:#166387"/>
				</linearGradient>
				<path id="Polygon-4_9_" class="st14" d="M1733.8,719.1c5.8-3.2,15.2-3.2,21,0l93.3,51.6c5.8,3.2,10.5,11.2,10.5,17.8V891
					c0,6.6-4.7,14.6-10.5,17.8l-93.3,51.6c-5.8,3.2-15.2,3.2-21,0l-93.3-51.6c-5.8-3.2-10.5-11.2-10.5-17.8V788.6
					c0-6.6,4.7-14.6,10.5-17.8L1733.8,719.1z"/>
			</g>
		</g>
	</g>
</g>
<g id="Page-1_8_">
	<g id="Artboard-Copy_8_" transform="translate(-497.000000, -461.000000)">
		<g id="Group_8_" transform="translate(497.000000, 461.000000)">
			<g id="Group-7_8_">
				
					<linearGradient id="Polygon-4_63_" gradientUnits="userSpaceOnUse" x1="1657.4403" y1="1192.6066" x2="1831.1348" y2="1018.9121">
					<stop  offset="0" style="stop-color:#106F87"/>
					<stop  offset="1" style="stop-color:#166387"/>
				</linearGradient>
				<path id="Polygon-4_8_" class="st15" d="M1733.8,985.1c5.8-3.2,15.2-3.2,21,0l93.3,51.6c5.8,3.2,10.5,11.2,10.5,17.8V1157
					c0,6.6-4.7,14.6-10.5,17.8l-93.3,51.6c-5.8,3.2-15.2,3.2-21,0l-93.3-51.6c-5.8-3.2-10.5-11.2-10.5-17.8v-102.4
					c0-6.6,4.7-14.6,10.5-17.8L1733.8,985.1z"/>
			</g>
		</g>
	</g>
</g>
<g id="Page-1_31_">
	<g id="Artboard-Copy_31_" transform="translate(-497.000000, -461.000000)">
		<g id="Group_31_" transform="translate(497.000000, 461.000000)">
			<g id="Group-7_31_">
				<linearGradient id="Polygon-4_64_" gradientUnits="userSpaceOnUse" x1="-85.5596" y1="793.6066" x2="88.1348" y2="619.9121">
					<stop  offset="0" style="stop-color:#106F87"/>
					<stop  offset="1" style="stop-color:#166387"/>
				</linearGradient>
				<path id="Polygon-4_31_" class="st16" d="M-9.2,586.1c5.8-3.2,15.2-3.2,21,0l93.3,51.6c5.8,3.2,10.5,11.2,10.5,17.8V758
					c0,6.6-4.7,14.6-10.5,17.8l-93.3,51.6c-5.8,3.2-15.2,3.2-21,0l-93.3-51.6c-5.8-3.2-10.5-11.2-10.5-17.8V655.6
					c0-6.6,4.7-14.6,10.5-17.8L-9.2,586.1z"/>
			</g>
		</g>
	</g>
</g>
<g id="Page-1_27_">
	<g id="Artboard-Copy_27_" transform="translate(-497.000000, -461.000000)">
		<g id="Group_27_" transform="translate(497.000000, 461.000000)">
			<g id="Group-7_27_">
				<path id="Polygon-4_27_" class="st7" d="M1982.8,586.1c5.8-3.2,15.2-3.2,21,0l93.3,51.6c5.8,3.2,10.5,11.2,10.5,17.8V758
					c0,6.6-4.7,14.6-10.5,17.8l-93.3,51.6c-5.8,3.2-15.2,3.2-21,0l-93.3-51.6c-5.8-3.2-10.5-11.2-10.5-17.8V655.6
					c0-6.6,4.7-14.6,10.5-17.8L1982.8,586.1z"/>
			</g>
		</g>
	</g>
</g>
<g id="Page-1_26_">
	<g id="Artboard-Copy_26_" transform="translate(-497.000000, -461.000000)">
		<g id="Group_26_" transform="translate(497.000000, 461.000000)">
			<g id="Group-7_26_">
				<path id="Polygon-4_26_" class="st7" d="M1982.8,852.1c5.8-3.2,15.2-3.2,21,0l93.3,51.6c5.8,3.2,10.5,11.2,10.5,17.8V1024
					c0,6.6-4.7,14.6-10.5,17.8l-93.3,51.6c-5.8,3.2-15.2,3.2-21,0l-93.3-51.6c-5.8-3.2-10.5-11.2-10.5-17.8V921.6
					c0-6.6,4.7-14.6,10.5-17.8L1982.8,852.1z"/>
			</g>
		</g>
	</g>
</g>
<g id="Page-1_25_">
	<g id="Artboard-Copy_25_" transform="translate(-497.000000, -461.000000)">
		<g id="Group_25_" transform="translate(497.000000, 461.000000)">
			<g id="Group-7_25_">
				<linearGradient id="Polygon-4_65_" gradientUnits="userSpaceOnUse" x1="2128" y1="839.7593" x2="2356.5752" y2="839.7593">
					<stop  offset="0" style="stop-color:#4B4B4B"/>
					<stop  offset="1" style="stop-color:#5E5E5E"/>
				</linearGradient>
				<path id="Polygon-4_25_" class="st17" d="M2231.8,719.1c5.8-3.2,15.2-3.2,21,0l93.3,51.6c5.8,3.2,10.5,11.2,10.5,17.8V891
					c0,6.6-4.7,14.6-10.5,17.8l-93.3,51.6c-5.8,3.2-15.2,3.2-21,0l-93.3-51.6c-5.8-3.2-10.5-11.2-10.5-17.8V788.6
					c0-6.6,4.7-14.6,10.5-17.8L2231.8,719.1z"/>
			</g>
		</g>
	</g>
</g>
<g id="Page-1_24_">
	<g id="Artboard-Copy_24_" transform="translate(-497.000000, -461.000000)">
		<g id="Group_24_" transform="translate(497.000000, 461.000000)">
			<g id="Group-7_24_">
				
					<linearGradient id="Polygon-4_66_" gradientUnits="userSpaceOnUse" x1="2155.4404" y1="1192.6066" x2="2329.1348" y2="1018.9121">
					<stop  offset="0" style="stop-color:#106F87"/>
					<stop  offset="1" style="stop-color:#166387"/>
				</linearGradient>
				<path id="Polygon-4_24_" class="st18" d="M2231.8,985.1c5.8-3.2,15.2-3.2,21,0l93.3,51.6c5.8,3.2,10.5,11.2,10.5,17.8V1157
					c0,6.6-4.7,14.6-10.5,17.8l-93.3,51.6c-5.8,3.2-15.2,3.2-21,0l-93.3-51.6c-5.8-3.2-10.5-11.2-10.5-17.8v-102.4
					c0-6.6,4.7-14.6,10.5-17.8L2231.8,985.1z"/>
			</g>
		</g>
	</g>
</g>
<g id="Page-1_23_">
	<g id="Artboard-Copy_23_" transform="translate(-497.000000, -461.000000)">
		<g id="Group_23_" transform="translate(497.000000, 461.000000)">
			<g id="Group-7_23_">
				<path id="Polygon-4_23_" class="st19" d="M2480.8,586.1c5.8-3.2,15.2-3.2,21,0l93.3,51.6c5.8,3.2,10.5,11.2,10.5,17.8V758
					c0,6.6-4.7,14.6-10.5,17.8l-93.3,51.6c-5.8,3.2-15.2,3.2-21,0l-93.3-51.6c-5.8-3.2-10.5-11.2-10.5-17.8V655.6
					c0-6.6,4.7-14.6,10.5-17.8L2480.8,586.1z"/>
			</g>
		</g>
	</g>
</g>
<g id="Page-1_22_">
	<g id="Artboard-Copy_22_" transform="translate(-497.000000, -461.000000)">
		<g id="Group_22_" transform="translate(497.000000, 461.000000)">
			<g id="Group-7_22_">
				<path id="Polygon-4_22_" class="st7" d="M2480.8,852.1c5.8-3.2,15.2-3.2,21,0l93.3,51.6c5.8,3.2,10.5,11.2,10.5,17.8V1024
					c0,6.6-4.7,14.6-10.5,17.8l-93.3,51.6c-5.8,3.2-15.2,3.2-21,0l-93.3-51.6c-5.8-3.2-10.5-11.2-10.5-17.8V921.6
					c0-6.6,4.7-14.6,10.5-17.8L2480.8,852.1z"/>
			</g>
		</g>
	</g>
</g>
<g id="Page-1_21_">
	<g id="Artboard-Copy_21_" transform="translate(-497.000000, -461.000000)">
		<g id="Group_21_" transform="translate(497.000000, 461.000000)">
			<g id="Group-7_21_">
				<linearGradient id="Polygon-4_67_" gradientUnits="userSpaceOnUse" x1="2653.4404" y1="926.6066" x2="2827.1348" y2="752.9121">
					<stop  offset="0" style="stop-color:#106F87"/>
					<stop  offset="1" style="stop-color:#166387"/>
				</linearGradient>
				<path id="Polygon-4_21_" class="st20" d="M2729.8,719.1c5.8-3.2,15.2-3.2,21,0l93.3,51.6c5.8,3.2,10.5,11.2,10.5,17.8V891
					c0,6.6-4.7,14.6-10.5,17.8l-93.3,51.6c-5.8,3.2-15.2,3.2-21,0l-93.3-51.6c-5.8-3.2-10.5-11.2-10.5-17.8V788.6
					c0-6.6,4.7-14.6,10.5-17.8L2729.8,719.1z"/>
			</g>
		</g>
	</g>
</g>
<g id="Page-1_20_">
	<g id="Artboard-Copy_20_" transform="translate(-497.000000, -461.000000)">
		<g id="Group_20_" transform="translate(497.000000, 461.000000)">
			<g id="Group-7_20_">
				<path id="Polygon-4_20_" class="st7" d="M2729.8,985.1c5.8-3.2,15.2-3.2,21,0l93.3,51.6c5.8,3.2,10.5,11.2,10.5,17.8V1157
					c0,6.6-4.7,14.6-10.5,17.8l-93.3,51.6c-5.8,3.2-15.2,3.2-21,0l-93.3-51.6c-5.8-3.2-10.5-11.2-10.5-17.8v-102.4
					c0-6.6,4.7-14.6,10.5-17.8L2729.8,985.1z"/>
			</g>
		</g>
	</g>
</g>
<g id="Page-1_19_">
	<g id="Artboard-Copy_19_" transform="translate(-497.000000, -461.000000)">
		<g id="Group_19_" transform="translate(497.000000, 461.000000)">
			<g id="Group-7_19_">
				<linearGradient id="Polygon-4_68_" gradientUnits="userSpaceOnUse" x1="2902.4404" y1="793.6066" x2="3076.1348" y2="619.9121">
					<stop  offset="0" style="stop-color:#106F87"/>
					<stop  offset="1" style="stop-color:#166387"/>
				</linearGradient>
				<path id="Polygon-4_19_" class="st21" d="M2978.8,586.1c5.8-3.2,15.2-3.2,21,0l93.3,51.6c5.8,3.2,10.5,11.2,10.5,17.8V758
					c0,6.6-4.7,14.6-10.5,17.8l-93.3,51.6c-5.8,3.2-15.2,3.2-21,0l-93.3-51.6c-5.8-3.2-10.5-11.2-10.5-17.8V655.6
					c0-6.6,4.7-14.6,10.5-17.8L2978.8,586.1z"/>
			</g>
		</g>
	</g>
</g>
<g id="Page-1_18_">
	<g id="Artboard-Copy_18_" transform="translate(-497.000000, -461.000000)">
		<g id="Group_18_" transform="translate(497.000000, 461.000000)">
			<g id="Group-7_18_">
				<linearGradient id="Polygon-4_69_" gradientUnits="userSpaceOnUse" x1="2875" y1="972.7593" x2="3103.5752" y2="972.7593">
					<stop  offset="0" style="stop-color:#4B4B4B"/>
					<stop  offset="1" style="stop-color:#5E5E5E"/>
				</linearGradient>
				<path id="Polygon-4_18_" class="st22" d="M2978.8,852.1c5.8-3.2,15.2-3.2,21,0l93.3,51.6c5.8,3.2,10.5,11.2,10.5,17.8V1024
					c0,6.6-4.7,14.6-10.5,17.8l-93.3,51.6c-5.8,3.2-15.2,3.2-21,0l-93.3-51.6c-5.8-3.2-10.5-11.2-10.5-17.8V921.6
					c0-6.6,4.7-14.6,10.5-17.8L2978.8,852.1z"/>
			</g>
		</g>
	</g>
</g>
<g id="Page-1_17_">
	<g id="Artboard-Copy_17_" transform="translate(-497.000000, -461.000000)">
		<g id="Group_17_" transform="translate(497.000000, 461.000000)">
			<g id="Group-7_17_">
				<path id="Polygon-4_17_" class="st7" d="M3227.8,719.1c5.8-3.2,15.2-3.2,21,0l93.3,51.6c5.8,3.2,10.5,11.2,10.5,17.8V891
					c0,6.6-4.7,14.6-10.5,17.8l-93.3,51.6c-5.8,3.2-15.2,3.2-21,0l-93.3-51.6c-5.8-3.2-10.5-11.2-10.5-17.8V788.6
					c0-6.6,4.7-14.6,10.5-17.8L3227.8,719.1z"/>
			</g>
		</g>
	</g>
</g>
<g id="Page-1_16_">
	<g id="Artboard-Copy_16_" transform="translate(-497.000000, -461.000000)">
		<g id="Group_16_" transform="translate(497.000000, 461.000000)">
			<g id="Group-7_16_">
				
					<linearGradient id="Polygon-4_70_" gradientUnits="userSpaceOnUse" x1="3151.4404" y1="1192.6066" x2="3325.1348" y2="1018.9121">
					<stop  offset="0" style="stop-color:#106F87"/>
					<stop  offset="1" style="stop-color:#166387"/>
				</linearGradient>
				<path id="Polygon-4_16_" class="st23" d="M3227.8,985.1c5.8-3.2,15.2-3.2,21,0l93.3,51.6c5.8,3.2,10.5,11.2,10.5,17.8V1157
					c0,6.6-4.7,14.6-10.5,17.8l-93.3,51.6c-5.8,3.2-15.2,3.2-21,0l-93.3-51.6c-5.8-3.2-10.5-11.2-10.5-17.8v-102.4
					c0-6.6,4.7-14.6,10.5-17.8L3227.8,985.1z"/>
			</g>
		</g>
	</g>
</g>
<g id="Page-1_40_">
	<g id="Artboard-Copy_40_" transform="translate(-497.000000, -461.000000)">
		<g id="Group_40_" transform="translate(497.000000, 461.000000)">
			<g id="Group-7_40_">
				<linearGradient id="Polygon-4_71_" gradientUnits="userSpaceOnUse" x1="3400.4404" y1="793.6066" x2="3574.1348" y2="619.9121">
					<stop  offset="0" style="stop-color:#106F87"/>
					<stop  offset="1" style="stop-color:#166387"/>
				</linearGradient>
				<path id="Polygon-4_40_" class="st24" d="M3476.8,586.1c5.8-3.2,15.2-3.2,21,0l93.3,51.6c5.8,3.2,10.5,11.2,10.5,17.8V758
					c0,6.6-4.7,14.6-10.5,17.8l-93.3,51.6c-5.8,3.2-15.2,3.2-21,0l-93.3-51.6c-5.8-3.2-10.5-11.2-10.5-17.8V655.6
					c0-6.6,4.7-14.6,10.5-17.8L3476.8,586.1z"/>
			</g>
		</g>
	</g>
</g>
<g id="Page-1_39_">
	<g id="Artboard-Copy_39_" transform="translate(-497.000000, -461.000000)">
		<g id="Group_39_" transform="translate(497.000000, 461.000000)">
			<g id="Group-7_39_">
				<linearGradient id="Polygon-4_72_" gradientUnits="userSpaceOnUse" x1="3373" y1="972.7593" x2="3601.5752" y2="972.7593">
					<stop  offset="0" style="stop-color:#4B4B4B"/>
					<stop  offset="1" style="stop-color:#5E5E5E"/>
				</linearGradient>
				<path id="Polygon-4_39_" class="st25" d="M3476.8,852.1c5.8-3.2,15.2-3.2,21,0l93.3,51.6c5.8,3.2,10.5,11.2,10.5,17.8V1024
					c0,6.6-4.7,14.6-10.5,17.8l-93.3,51.6c-5.8,3.2-15.2,3.2-21,0l-93.3-51.6c-5.8-3.2-10.5-11.2-10.5-17.8V921.6
					c0-6.6,4.7-14.6,10.5-17.8L3476.8,852.1z"/>
			</g>
		</g>
	</g>
</g>
<g id="Page-1_38_">
	<g id="Artboard-Copy_38_" transform="translate(-497.000000, -461.000000)">
		<g id="Group_38_" transform="translate(497.000000, 461.000000)">
			<g id="Group-7_38_">
				<linearGradient id="Polygon-4_73_" gradientUnits="userSpaceOnUse" x1="3622" y1="839.7593" x2="3850.5752" y2="839.7593">
					<stop  offset="0" style="stop-color:#4B4B4B"/>
					<stop  offset="1" style="stop-color:#5E5E5E"/>
				</linearGradient>
				<path id="Polygon-4_38_" class="st26" d="M3725.8,719.1c5.8-3.2,15.2-3.2,21,0l93.3,51.6c5.8,3.2,10.5,11.2,10.5,17.8V891
					c0,6.6-4.7,14.6-10.5,17.8l-93.3,51.6c-5.8,3.2-15.2,3.2-21,0l-93.3-51.6c-5.8-3.2-10.5-11.2-10.5-17.8V788.6
					c0-6.6,4.7-14.6,10.5-17.8L3725.8,719.1z"/>
			</g>
		</g>
	</g>
</g>
<g id="Page-1_37_">
	<g id="Artboard-Copy_37_" transform="translate(-497.000000, -461.000000)">
		<g id="Group_37_" transform="translate(497.000000, 461.000000)">
			<g id="Group-7_37_">
				<path id="Polygon-4_37_" class="st7" d="M3725.8,985.1c5.8-3.2,15.2-3.2,21,0l93.3,51.6c5.8,3.2,10.5,11.2,10.5,17.8V1157
					c0,6.6-4.7,14.6-10.5,17.8l-93.3,51.6c-5.8,3.2-15.2,3.2-21,0l-93.3-51.6c-5.8-3.2-10.5-11.2-10.5-17.8v-102.4
					c0-6.6,4.7-14.6,10.5-17.8L3725.8,985.1z"/>
			</g>
		</g>
	</g>
</g>
<g id="Page-1_36_">
	<g id="Artboard-Copy_36_" transform="translate(-497.000000, -461.000000)">
		<g id="Group_36_" transform="translate(497.000000, 461.000000)">
			<g id="Group-7_36_">
				<linearGradient id="Polygon-4_74_" gradientUnits="userSpaceOnUse" x1="3871" y1="706.7593" x2="4099.5752" y2="706.7593">
					<stop  offset="0" style="stop-color:#4B4B4B"/>
					<stop  offset="1" style="stop-color:#5E5E5E"/>
				</linearGradient>
				<path id="Polygon-4_36_" class="st27" d="M3974.8,586.1c5.8-3.2,15.2-3.2,21,0l93.3,51.6c5.8,3.2,10.5,11.2,10.5,17.8V758
					c0,6.6-4.7,14.6-10.5,17.8l-93.3,51.6c-5.8,3.2-15.2,3.2-21,0l-93.3-51.6c-5.8-3.2-10.5-11.2-10.5-17.8V655.6
					c0-6.6,4.7-14.6,10.5-17.8L3974.8,586.1z"/>
			</g>
		</g>
	</g>
</g>
<g id="Page-1_35_">
	<g id="Artboard-Copy_35_" transform="translate(-497.000000, -461.000000)">
		<g id="Group_35_" transform="translate(497.000000, 461.000000)">
			<g id="Group-7_35_">
				<path id="Polygon-4_35_" class="st28" d="M3974.8,852.1c5.8-3.2,15.2-3.2,21,0l93.3,51.6c5.8,3.2,10.5,11.2,10.5,17.8V1024
					c0,6.6-4.7,14.6-10.5,17.8l-93.3,51.6c-5.8,3.2-15.2,3.2-21,0l-93.3-51.6c-5.8-3.2-10.5-11.2-10.5-17.8V921.6
					c0-6.6,4.7-14.6,10.5-17.8L3974.8,852.1z"/>
			</g>
		</g>
	</g>
</g>
<g id="Page-1_34_">
	<g id="Artboard-Copy_34_" transform="translate(-497.000000, -461.000000)">
		<g id="Group_34_" transform="translate(497.000000, 461.000000)">
			<g id="Group-7_34_">
				<linearGradient id="Polygon-4_75_" gradientUnits="userSpaceOnUse" x1="4147.4404" y1="926.6066" x2="4321.1348" y2="752.9121">
					<stop  offset="0" style="stop-color:#106F87"/>
					<stop  offset="1" style="stop-color:#166387"/>
				</linearGradient>
				<path id="Polygon-4_34_" class="st29" d="M4223.8,719.1c5.8-3.2,15.2-3.2,21,0l93.3,51.6c5.8,3.2,10.5,11.2,10.5,17.8V891
					c0,6.6-4.7,14.6-10.5,17.8l-93.3,51.6c-5.8,3.2-15.2,3.2-21,0l-93.3-51.6c-5.8-3.2-10.5-11.2-10.5-17.8V788.6
					c0-6.6,4.7-14.6,10.5-17.8L4223.8,719.1z"/>
			</g>
		</g>
	</g>
</g>
<g id="Page-1_33_">
	<g id="Artboard-Copy_33_" transform="translate(-497.000000, -461.000000)">
		<g id="Group_33_" transform="translate(497.000000, 461.000000)">
			<g id="Group-7_33_">
				<path id="Polygon-4_33_" class="st7" d="M4223.8,985.1c5.8-3.2,15.2-3.2,21,0l93.3,51.6c5.8,3.2,10.5,11.2,10.5,17.8V1157
					c0,6.6-4.7,14.6-10.5,17.8l-93.3,51.6c-5.8,3.2-15.2,3.2-21,0l-93.3-51.6c-5.8-3.2-10.5-11.2-10.5-17.8v-102.4
					c0-6.6,4.7-14.6,10.5-17.8L4223.8,985.1z"/>
			</g>
		</g>
	</g>
</g>
<g id="Page-1_32_">
	<g id="Artboard-Copy_32_" transform="translate(-497.000000, -461.000000)">
		<g id="Group_32_" transform="translate(497.000000, 461.000000)">
			<g id="Group-7_32_">
				<linearGradient id="Polygon-4_76_" gradientUnits="userSpaceOnUse" x1="4396.4404" y1="793.6066" x2="4570.1348" y2="619.9121">
					<stop  offset="0" style="stop-color:#106F87"/>
					<stop  offset="1" style="stop-color:#166387"/>
				</linearGradient>
				<path id="Polygon-4_32_" class="st30" d="M4472.8,586.1c5.8-3.2,15.2-3.2,21,0l93.3,51.6c5.8,3.2,10.5,11.2,10.5,17.8V758
					c0,6.6-4.7,14.6-10.5,17.8l-93.3,51.6c-5.8,3.2-15.2,3.2-21,0l-93.3-51.6c-5.8-3.2-10.5-11.2-10.5-17.8V655.6
					c0-6.6,4.7-14.6,10.5-17.8L4472.8,586.1z"/>
			</g>
		</g>
	</g>
</g>
<g id="Page-1_30_">
	<g id="Artboard-Copy_30_" transform="translate(-497.000000, -461.000000)">
		<g id="Group_30_" transform="translate(497.000000, 461.000000)">
			<g id="Group-7_30_">
				<linearGradient id="Polygon-4_77_" gradientUnits="userSpaceOnUse" x1="4369" y1="972.7593" x2="4597.5752" y2="972.7593">
					<stop  offset="0" style="stop-color:#4B4B4B"/>
					<stop  offset="1" style="stop-color:#5E5E5E"/>
				</linearGradient>
				<path id="Polygon-4_30_" class="st31" d="M4472.8,852.1c5.8-3.2,15.2-3.2,21,0l93.3,51.6c5.8,3.2,10.5,11.2,10.5,17.8V1024
					c0,6.6-4.7,14.6-10.5,17.8l-93.3,51.6c-5.8,3.2-15.2,3.2-21,0l-93.3-51.6c-5.8-3.2-10.5-11.2-10.5-17.8V921.6
					c0-6.6,4.7-14.6,10.5-17.8L4472.8,852.1z"/>
			</g>
		</g>
	</g>
</g>
<g id="Page-1_29_">
	<g id="Artboard-Copy_29_" transform="translate(-497.000000, -461.000000)">
		<g id="Group_29_" transform="translate(497.000000, 461.000000)">
			<g id="Group-7_29_">
				<linearGradient id="Polygon-4_78_" gradientUnits="userSpaceOnUse" x1="4645.4404" y1="926.6066" x2="4819.1348" y2="752.9121">
					<stop  offset="0" style="stop-color:#106F87"/>
					<stop  offset="1" style="stop-color:#166387"/>
				</linearGradient>
				<path id="Polygon-4_29_" class="st32" d="M4721.8,719.1c5.8-3.2,15.2-3.2,21,0l93.3,51.6c5.8,3.2,10.5,11.2,10.5,17.8V891
					c0,6.6-4.7,14.6-10.5,17.8l-93.3,51.6c-5.8,3.2-15.2,3.2-21,0l-93.3-51.6c-5.8-3.2-10.5-11.2-10.5-17.8V788.6
					c0-6.6,4.7-14.6,10.5-17.8L4721.8,719.1z"/>
			</g>
		</g>
	</g>
</g>
<g id="Page-1_28_">
	<g id="Artboard-Copy_28_" transform="translate(-497.000000, -461.000000)">
		<g id="Group_28_" transform="translate(497.000000, 461.000000)">
			<g id="Group-7_28_">
				<path id="Polygon-4_28_" class="st7" d="M4721.8,985.1c5.8-3.2,15.2-3.2,21,0l93.3,51.6c5.8,3.2,10.5,11.2,10.5,17.8V1157
					c0,6.6-4.7,14.6-10.5,17.8l-93.3,51.6c-5.8,3.2-15.2,3.2-21,0l-93.3-51.6c-5.8-3.2-10.5-11.2-10.5-17.8v-102.4
					c0-6.6,4.7-14.6,10.5-17.8L4721.8,985.1z"/>
			</g>
		</g>
	</g>
</g>
<g id="Page-1_48_">
	<g id="Artboard-Copy_48_" transform="translate(-497.000000, -461.000000)">
		<g id="Group_48_" transform="translate(497.000000, 461.000000)">
			<g id="Group-7_48_">
				<linearGradient id="Polygon-4_79_" gradientUnits="userSpaceOnUse" x1="4867" y1="706.7593" x2="5095.5752" y2="706.7593">
					<stop  offset="0" style="stop-color:#4B4B4B"/>
					<stop  offset="1" style="stop-color:#5E5E5E"/>
				</linearGradient>
				<path id="Polygon-4_48_" class="st33" d="M4970.8,586.1c5.8-3.2,15.2-3.2,21,0l93.3,51.6c5.8,3.2,10.5,11.2,10.5,17.8V758
					c0,6.6-4.7,14.6-10.5,17.8l-93.3,51.6c-5.8,3.2-15.2,3.2-21,0l-93.3-51.6c-5.8-3.2-10.5-11.2-10.5-17.8V655.6
					c0-6.6,4.7-14.6,10.5-17.8L4970.8,586.1z"/>
			</g>
		</g>
	</g>
</g>
<g id="Page-1_47_">
	<g id="Artboard-Copy_47_" transform="translate(-497.000000, -461.000000)">
		<g id="Group_47_" transform="translate(497.000000, 461.000000)">
			<g id="Group-7_47_">
				<path id="Polygon-4_47_" class="st28" d="M4970.8,852.1c5.8-3.2,15.2-3.2,21,0l93.3,51.6c5.8,3.2,10.5,11.2,10.5,17.8V1024
					c0,6.6-4.7,14.6-10.5,17.8l-93.3,51.6c-5.8,3.2-15.2,3.2-21,0l-93.3-51.6c-5.8-3.2-10.5-11.2-10.5-17.8V921.6
					c0-6.6,4.7-14.6,10.5-17.8L4970.8,852.1z"/>
			</g>
		</g>
	</g>
</g>
<g id="Page-1_46_">
	<g id="Artboard-Copy_46_" transform="translate(-497.000000, -461.000000)">
		<g id="Group_46_" transform="translate(497.000000, 461.000000)">
			<g id="Group-7_46_">
				<linearGradient id="Polygon-4_80_" gradientUnits="userSpaceOnUse" x1="5143.4404" y1="926.6066" x2="5317.1348" y2="752.9121">
					<stop  offset="0" style="stop-color:#106F87"/>
					<stop  offset="1" style="stop-color:#166387"/>
				</linearGradient>
				<path id="Polygon-4_46_" class="st34" d="M5219.8,719.1c5.8-3.2,15.2-3.2,21,0l93.3,51.6c5.8,3.2,10.5,11.2,10.5,17.8V891
					c0,6.6-4.7,14.6-10.5,17.8l-93.3,51.6c-5.8,3.2-15.2,3.2-21,0l-93.3-51.6c-5.8-3.2-10.5-11.2-10.5-17.8V788.6
					c0-6.6,4.7-14.6,10.5-17.8L5219.8,719.1z"/>
			</g>
		</g>
	</g>
</g>
<g id="Page-1_45_">
	<g id="Artboard-Copy_45_" transform="translate(-497.000000, -461.000000)">
		<g id="Group_45_" transform="translate(497.000000, 461.000000)">
			<g id="Group-7_45_">
				<path id="Polygon-4_45_" class="st7" d="M5219.8,985.1c5.8-3.2,15.2-3.2,21,0l93.3,51.6c5.8,3.2,10.5,11.2,10.5,17.8V1157
					c0,6.6-4.7,14.6-10.5,17.8l-93.3,51.6c-5.8,3.2-15.2,3.2-21,0l-93.3-51.6c-5.8-3.2-10.5-11.2-10.5-17.8v-102.4
					c0-6.6,4.7-14.6,10.5-17.8L5219.8,985.1z"/>
			</g>
		</g>
	</g>
</g>
<g id="Page-1_44_">
	<g id="Artboard-Copy_44_" transform="translate(-497.000000, -461.000000)">
		<g id="Group_44_" transform="translate(497.000000, 461.000000)">
			<g id="Group-7_44_">
				<linearGradient id="Polygon-4_81_" gradientUnits="userSpaceOnUse" x1="5392.4404" y1="793.6066" x2="5566.1348" y2="619.9121">
					<stop  offset="0" style="stop-color:#106F87"/>
					<stop  offset="1" style="stop-color:#166387"/>
				</linearGradient>
				<path id="Polygon-4_44_" class="st35" d="M5468.8,586.1c5.8-3.2,15.2-3.2,21,0l93.3,51.6c5.8,3.2,10.5,11.2,10.5,17.8V758
					c0,6.6-4.7,14.6-10.5,17.8l-93.3,51.6c-5.8,3.2-15.2,3.2-21,0l-93.3-51.6c-5.8-3.2-10.5-11.2-10.5-17.8V655.6
					c0-6.6,4.7-14.6,10.5-17.8L5468.8,586.1z"/>
			</g>
		</g>
	</g>
</g>
<g id="Page-1_43_">
	<g id="Artboard-Copy_43_" transform="translate(-497.000000, -461.000000)">
		<g id="Group_43_" transform="translate(497.000000, 461.000000)">
			<g id="Group-7_43_">
				<linearGradient id="Polygon-4_82_" gradientUnits="userSpaceOnUse" x1="5365" y1="972.7593" x2="5593.5752" y2="972.7593">
					<stop  offset="0" style="stop-color:#4B4B4B"/>
					<stop  offset="1" style="stop-color:#5E5E5E"/>
				</linearGradient>
				<path id="Polygon-4_43_" class="st36" d="M5468.8,852.1c5.8-3.2,15.2-3.2,21,0l93.3,51.6c5.8,3.2,10.5,11.2,10.5,17.8V1024
					c0,6.6-4.7,14.6-10.5,17.8l-93.3,51.6c-5.8,3.2-15.2,3.2-21,0l-93.3-51.6c-5.8-3.2-10.5-11.2-10.5-17.8V921.6
					c0-6.6,4.7-14.6,10.5-17.8L5468.8,852.1z"/>
			</g>
		</g>
	</g>
</g>
<g id="Page-1_42_">
	<g id="Artboard-Copy_42_" transform="translate(-497.000000, -461.000000)">
		<g id="Group_42_" transform="translate(497.000000, 461.000000)">
			<g id="Group-7_42_">
				<linearGradient id="Polygon-4_83_" gradientUnits="userSpaceOnUse" x1="5641.4404" y1="926.6066" x2="5815.1348" y2="752.9121">
					<stop  offset="0" style="stop-color:#106F87"/>
					<stop  offset="1" style="stop-color:#166387"/>
				</linearGradient>
				<path id="Polygon-4_42_" class="st37" d="M5717.8,719.1c5.8-3.2,15.2-3.2,21,0l93.3,51.6c5.8,3.2,10.5,11.2,10.5,17.8V891
					c0,6.6-4.7,14.6-10.5,17.8l-93.3,51.6c-5.8,3.2-15.2,3.2-21,0l-93.3-51.6c-5.8-3.2-10.5-11.2-10.5-17.8V788.6
					c0-6.6,4.7-14.6,10.5-17.8L5717.8,719.1z"/>
			</g>
		</g>
	</g>
</g>
<g id="Page-1_41_">
	<g id="Artboard-Copy_41_" transform="translate(-497.000000, -461.000000)">
		<g id="Group_41_" transform="translate(497.000000, 461.000000)">
			<g id="Group-7_41_">
				<path id="Polygon-4_41_" class="st28" d="M5717.8,985.1c5.8-3.2,15.2-3.2,21,0l93.3,51.6c5.8,3.2,10.5,11.2,10.5,17.8V1157
					c0,6.6-4.7,14.6-10.5,17.8l-93.3,51.6c-5.8,3.2-15.2,3.2-21,0l-93.3-51.6c-5.8-3.2-10.5-11.2-10.5-17.8v-102.4
					c0-6.6,4.7-14.6,10.5-17.8L5717.8,985.1z"/>
			</g>
		</g>
	</g>
</g>
</svg>
